<?xml version="1.0" encoding="utf-8"?>
<!-- Generator: Adobe Illustrator 24.2.1, SVG Export Plug-In . SVG Version: 6.00 Build 0)  -->
<svg version="1.1" id="Layer_1" xmlns="http://www.w3.org/2000/svg" xmlns:xlink="http://www.w3.org/1999/xlink" x="0px" y="0px"
	 viewBox="0 0 500 500" style="enable-background:new 0 0 500 500;" xml:space="preserve">
<style type="text/css">
	.st0{fill:#F2F2F2;}
	.st1{stroke:#000000;stroke-width:4;stroke-miterlimit:10;}
</style>
<g id="Layer_2_1_">
	<rect class="st0" width="500" height="500"/>
</g>
<g id="Layer_1_1_">
	<g>
		<path class="st1" d="M254.3,179.9c-3.9,1-6.3-0.4-8.9-3.4c-5.8-6.7-13.7-8-22-5.8c-8.4,2.2-13.6,7.9-15.5,16.3
			c-2.6,11.2,1.3,21.5,9.8,26.8c14.7,9.1,33.5-0.5,34.3-17.8c-8.1,0-16.1,0-24.5,0c-0.1-1.6-0.1-2.8-0.2-4.3c10.2,0,20.2,0,30.2,0
			c2.5,12.4-7.1,25.8-20.7,29.1c-14.9,3.6-30-4.6-34-18.7c-4.4-15.6,3.3-30.8,18-35.5C234.4,162.1,250,168.3,254.3,179.9z"/>
		<path class="st1" d="M303.8,165.9c2,0,3.5,0,5.2,0c0,18.4,0,36.7,0,54.8c-3.4,1-5.5,0.1-7.4-2.8c-8.6-13.2-17.5-26.3-26.3-39.4
			c-0.7-1-1.3-2-2.6-3.8c0,15.9,0,30.9,0,46.1c-2.1,0-3.8,0-5.6,0c0-18.3,0-36.4,0-54.8c3.2-0.8,5.5-0.5,7.6,2.7
			c8.4,12.9,17,25.6,25.6,38.4c0.9,1.4,1.9,2.7,3.6,3.8C303.8,196.1,303.8,181.2,303.8,165.9z"/>
		<path class="st1" d="M46.1,221c0-18.4,0-36.6,0-55.3c10.4,0.7,20.8-1.7,30.8,2.7c8.8,3.9,13.4,11.1,14.4,20.4
			c0.4,3.8,0.4,7.9-0.3,11.6c-2.2,12.4-10.5,19.3-24.4,20.5C59.8,221.4,53.1,221,46.1,221z M51.7,216.7c5.1,0,10.1,0.2,15,0
			c9.7-0.5,17.1-6.8,18.6-16.4c0.7-4.4,0.5-9.1-0.2-13.5c-1-6.6-4.7-11.6-11-14.2c-7.2-3-14.8-2-22.4-2
			C51.7,186.1,51.7,201.3,51.7,216.7z"/>
		<path class="st1" d="M248.3,277.7c16.1,0,28,11.9,28.1,28.2c0.1,16.1-12,28.2-28.3,28.3c-15.7,0.1-28-12.2-28-27.9
			C220.1,289.5,231.7,277.7,248.3,277.7z M247.7,329.5c13.1,0.3,22.8-9.2,23-22.8c0.3-13.9-8.9-24.1-21.9-24.3
			c-13.8-0.2-23.1,9.2-23.4,23.5C225.3,319.4,234.5,329.2,247.7,329.5z"/>
		<path class="st1" d="M382.1,198.3c4.9,7.3,9.9,14.8,14.9,22.3c-5.5,1.4-6.3,1.1-9.1-3.2c-3.4-5.3-7-10.4-10.1-15.9
			c-1.8-3.1-3.9-4.3-7.3-3.8c-1.2,0.2-2.5,0-4.1,0c0,7.9,0,15.4,0,23.2c-1.8,0-3.3,0-5.2,0c-0.1-0.9-0.2-2-0.2-3
			c0-16.3,0.1-32.5-0.1-48.8c0-2.6,0.6-3.7,3.4-3.5c5.9,0.3,11.9-0.1,17.9,0.4c6.7,0.6,11.7,4,13.8,10.6c2,6.2,0.2,13.6-4.7,17.1
			C388.8,195.7,385.5,196.7,382.1,198.3z M366.5,193.1c5.3,0,10.4,0.4,15.4-0.1c5.8-0.6,8.9-4.3,9.2-9.6c0.5-6.9-1.6-11.3-7.2-12.4
			c-5.6-1.1-11.5-1-17.4-1.4C366.5,177.9,366.5,185.4,366.5,193.1z"/>
		<path class="st1" d="M175,333.5c-2.1,0-3.6,0-5.3,0c0-18.3,0-36.5,0-54.8c4.9-1.3,5.3-1,5.3,3.8c0,6.2-0.1,12.3,0.1,18.5
			c0,0.8,1,2.4,1.6,2.4c9.3,0.2,18.6,0.1,28.3,0.1c0-8.5,0-16.7,0-25.1c1.9,0,3.5,0,5.2,0c0,18.3,0,36.5,0,54.9c-1.6,0-3.1,0-5.1,0
			c0-6.9,0-13.8,0-20.7c0-5.2,0.8-4.9-4.9-4.9c-7.4,0-14.7,0.1-22.1-0.1c-2.5,0-3.2,0.8-3.1,3.2c0.1,6.4,0,12.8,0,19.2
			C175,331.1,175,332.2,175,333.5z"/>
		<path class="st1" d="M353.2,292.3c-3.5,0.8-5.9,0-8.5-3.1c-6.1-7.3-14.4-8.4-23.1-5.8c-8.9,2.6-13.8,9.1-15.1,18.1
			c-1.7,12.2,3.1,21.7,12.6,26c9.7,4.4,20.8,1.7,27-6.7c2.1-2.8,4.5-1.3,7-1.3c-3.1,10.1-16.4,16.4-29.9,14.1
			c-11.6-1.9-23.4-12.2-22.7-29.2c0.6-13.3,10.6-24.8,23.7-26.5C337.6,276.2,350.8,282.8,353.2,292.3z"/>
		<path class="st1" d="M156.6,319.2c-3.9,10.7-17.3,16.8-30.7,14.3c-13.2-2.5-22.4-14.3-22.1-28.5c0.3-13.8,10-25.1,23.4-27.1
			c13.1-2,26.2,4.5,29.3,14.4c-3.4,0.6-6,0.3-8.5-3c-4.9-6.7-14.7-8.7-23.7-5.8c-8.3,2.7-14.2,10.4-14.8,19.4
			c-0.6,8.9,1.5,16.8,9.1,22.4c9.6,7,23.8,5.1,30.7-4.4C151.3,318,153.9,319.6,156.6,319.2z"/>
		<path class="st1" d="M419.3,208.4c1.7,0,3.4,0,5.1,0c3.5,8.1,10.9,11.1,19.1,7.6c4.1-1.8,6.6-4.9,6.7-9.5c0.1-4.5-2.5-7.4-6.5-8.7
			c-4-1.3-8.1-2.2-12.2-3.2c-9.1-2.2-13.2-7.6-12.4-16.2c0.7-7.1,6.9-12.7,15.1-12.9c3.6-0.1,7.4,0.3,10.8,1.4
			c5.1,1.7,7.9,5.7,9,11.2c-3.2,0.3-5.8,1-7.5-3.2c-1.9-4.6-8.9-6.3-15-4.5c-5,1.5-7.5,4.9-7.4,10.1c0.1,4.2,2.3,7,6.1,8.3
			c3.7,1.3,7.5,2.1,11.2,3.1c0.9,0.3,1.9,0.5,2.8,0.8c7.5,2.3,10.8,6.3,10.9,13.1c0.1,6.7-4.3,12.9-11,14.9
			c-6.8,2.1-13.5,1.4-19.7-2.4C420.9,215.9,419.3,212.7,419.3,208.4z"/>
		<path class="st1" d="M174.1,178.1c-2.1,0-3.8,0-5.5,0c-4-7.5-10-10.1-17.6-7.5c-4.3,1.4-6.7,4.7-6.8,9.3c-0.2,4.1,1.9,7.4,6.2,8.9
			c3.7,1.3,7.5,2.1,11.2,3.2c0.9,0.3,1.9,0.5,2.8,0.8c7.7,2.4,10.8,6.2,10.8,13c0,7-4.3,13.1-11.1,15c-6.4,1.9-12.7,1.3-18.5-1.9
			c-3.9-2.2-6.3-5.4-6.2-10.3c3-0.4,5.3-0.9,6.7,2.9c1.7,5,8.6,6.9,15.6,5.3c5.5-1.3,8.8-5.6,8.6-11c-0.1-4.2-2.6-6.7-6.2-7.8
			c-4.5-1.5-9.2-2.4-13.8-3.7c-7.9-2.2-11.4-7.2-10.9-15.3c0.3-5.1,2.8-8.9,7.2-11.2c6.4-3.4,13.2-3.4,19.7-0.4
			C170.7,169.2,173.3,173,174.1,178.1z"/>
		<path class="st1" d="M349.3,165.9c1,3.1,0.2,4.2-2.9,4.1c-6.3-0.2-12.5-0.1-19-0.1c0,7.1,0,13.9,0,21c6.6,0,13,0,19.8,0
			c0.1,1.5,0.1,2.6,0.2,4.3c-3.6,0-7-0.1-10.4,0c-3.2,0.1-7.5-0.8-9.2,0.9c-1.6,1.5-0.5,5.9-0.6,9c0,3.7,0,7.3,0,11.3
			c7.6,0,14.9,0,22.4,0c0,1.6,0,2.9,0,4.3c-9.2,0-18.3,0-27.7,0c0-18.3,0-36.6,0-55C331,165.9,340,165.9,349.3,165.9z"/>
		<path class="st1" d="M129.1,216.7c0,1.8,0,2.9,0,4.3c-9.2,0-18.3,0-27.6,0c0-18.2,0-36.4,0-54.9c0.8-0.1,1.6-0.3,2.4-0.3
			c7.4,0,14.7,0.1,22.1-0.1c2.9,0,4.1,0.9,2.9,4.3c-7.1,0-14.4,0-21.9,0c0,7.2,0,14,0,21.1c6.6,0,13.1,0,19.8,0c0,1.5,0,2.6,0,4.2
			c-4.5,0-9.1,0-13.7,0c-6.2,0-6.2,0-6.2,6.1c0,5,0,9.9,0,15.3C114.2,216.7,121.5,216.7,129.1,216.7z"/>
		<path class="st1" d="M366.7,278.4c9.2,0,18.2,0,27.5,0c0,1.3,0,2.5,0,4.1c-6,0-11.9,0-17.9,0c-4.6,0-4.6,0-4.6,4.5
			c0,4.5,0.1,9.1,0,13.6c-0.1,2.3,0.7,3.1,3,3c5.6-0.1,11.2,0,17.1,0c0,1.5,0,2.6,0,4.1c-5.5,0-10.9,0.2-16.3-0.1
			c-3-0.1-3.9,0.8-3.8,3.8c0.2,5.7,0.1,11.4,0.1,17.5c7.6,0,14.9,0,22.4,0c0,1.6,0,2.8,0,4.3c-9,0-18.1,0-27.4,0
			C366.7,315.3,366.7,297,366.7,278.4z"/>
		<path class="st1" d="M191.9,221c-1.9,0-3.5,0-5.3,0c0-18.3,0-36.5,0-54.8c5.1-1.1,5.3-0.9,5.3,4c0,15.7,0,31.4,0,47.1
			C191.9,218.5,191.9,219.6,191.9,221z"/>
		<path class="st1" d="M290.9,333.5c-1.8,0-3.2,0-4.9,0c0-18.3,0-36.5,0-55c1.5,0,3.1,0,4.9,0C290.9,296.8,290.9,315,290.9,333.5z"
			/>
		<path class="st1" d="M406,157.4c2.1,0,3.6,0,5.5,0c-0.3,5-0.5,9.8-0.8,14.8c-1.3,0-2.4,0-3.8,0C406.6,167.4,406.3,162.6,406,157.4
			z"/>
	</g>
</g>
</svg>
