<?xml version="1.0" encoding="utf-8"?>
<!-- Generator: Adobe Illustrator 24.2.1, SVG Export Plug-In . SVG Version: 6.00 Build 0)  -->
<svg version="1.1" xmlns="http://www.w3.org/2000/svg" xmlns:xlink="http://www.w3.org/1999/xlink" x="0px" y="0px"
	 viewBox="0 0 500 500" style="enable-background:new 0 0 500 500;" xml:space="preserve">
<style type="text/css">
	.st0{fill:#F2F2F2;}
</style>
<g id="Layer_2">
	<rect class="st0" width="500" height="500"/>
</g>
<g id="Layer_1">
	<g>
		<path d="M82,203.4c-6.4,10.9-12.8,21.7-19.9,33.9c-8.9-2.8-18.9-5.9-28.6-8.9c5.8-3.9,15.3-7.3,15.6-11.3
			c0.4-5.8-5.7-12.1-8.9-17.9c23.1-2.1,23.2-2.4,11.6-25.6c20,0.4,20.8-0.5,16.9-18.3c5.7,0,13.1,2.2,16.8-0.6
			c3.6-2.8,3.4-10.6,4.8-15.5c5.4,2.3,12.8,8.4,17.6,6.7c4.6-1.6,6.5-11.1,9.5-16.9c14.3,11.3,14.3,11.3,27.7,2
			c2.5,7,4.9,13.7,7,19.2c-16.1,7.5-30.7,14.4-45.3,21.2c0.5,1.1,1.1,2.3,1.6,3.4c3-1.6,6.1-3.1,9.1-4.8
			c12.5-7.3,25.1-13.7,40.4-12.1c19.3,2,30.2,16.2,27.7,35.6c-0.7,5.1,1.7,10.5,2,15.8c0.5,10.8,2.7,22.2,0.2,32.4
			c-7.2,29.3-26.4,50.2-54.5,67.1c54.7,18.7,106.4,41.3,163.3,14.2c14.3,24.7,1.8,47.6-27.3,48.2c-34.8,0.8-66.2-12-97.3-25.3
			c-17.5-7.5-34.1-17.3-51.9-24.1c-10.5-4-22.3-5.7-33.6-6.1c-18-0.7-22,4.4-21.4,22.4c0.1,2.3-1.4,6.6-2.6,6.7
			c-2.8,0.3-6.4-0.5-8.6-2.2c-7.1-5.7-6.9-19.7,0.3-28.3c2.5-3,5.7-5.6,9-7.7c3.3-2.2,7-3.6,11.2-5.6c-1.2-1.9-2.6-3.4-3.2-5.1
			c-4.4-12.3-11.1-20.2-26-20.5c-10.2-0.2-17.5-7.7-17.8-19c-0.3-10.6,6.9-14.3,17-16c-0.6,11.5,4.4,18.7,17,19.7
			c6.8-18.7,13.7-37.7,20.6-56.6c3.3-3,6.6-5.9,9.9-8.9c-0.9-0.8-1.9-1.5-2.8-2.3C86.6,195.8,84.3,199.6,82,203.4z M168.1,232.1
			c-14.8,9.8-28.8,21.1-44.5,28.9c-14.9,7.4-31.7,11.2-47.6,16.6c4.2,17.8,16.9,25.1,36.9,20c33.8-8.6,45.7-36.1,55-65.6
			c0.2-0.3,0.3-0.6,0.5-0.8C168.3,231.4,168.2,231.8,168.1,232.1z M72.6,261.3c37.9-9.7,69.9-23.6,90.5-55.1
			c3.4-5.2,4.8-16.7,1.6-20.2c-4.6-5-14.2-6.2-21.8-7c-4.1-0.5-9,2.8-13.1,5.1c-22.6,12.7-37.5,32.6-49.5,54.8
			C77.1,245,75.7,252.3,72.6,261.3z"/>
		<path d="M411.4,223.1c16.8,9.1,18.7,12.9,15.4,28.2c7.1-6.9,14.7-13.4,21.3-20.7c6-6.7,11.3-5.4,17.5-0.8
			c6.5,4.8,6.2,9.7,2.5,16.4c-8.4,15.1-16,30.6-23.9,45.9c1.3,1,2.6,2,3.9,3c7.6-7.3,15.3-14.6,24.8-23.8c-0.4,4.5,0.1,7.1-0.9,8.3
			c-7.3,7.8-14.4,16.2-22.9,22.6c-3.8,2.9-12,3.5-16.1,1.3c-3.3-1.7-5.3-9.6-4.7-14.3c1.3-10,4.8-19.7,7.3-29.5
			c-0.8-0.5-1.7-1.1-2.5-1.6c-7.9,10.4-15.8,20.8-23.7,31.2c-0.9,1.3-1.5,2.8-2.2,4.2c-8.8,16.5-13.5,16.8-25.1,1.6
			c-30.4,19.5-47.5,18.4-56.7-3c-10.5,5.8-20.4,13.5-31.7,16.8c-13,3.8-22.6-4.4-28.7-16.1c-9.8,5.5-16.9,20.7-29.3,13.3
			c-5.8-3.5-6.1-16.4-9.1-25.7c-2.4,2.3-6.1,6-9.9,9.7c-3.4,3.4-6.1,8-10.2,9.8c-5,2.2-11.2,3-16.6,2.2c-1.5-0.2-3.5-8.2-2.7-12.1
			c2.5-11.4,6-22.7,9.8-33.8c3.5-10.5,7.9-20.6,12-30.9c16,6.2,18.6,12.5,11.9,26.4c-5.3,10.9-10.5,21.9-16.6,34.6
			c14.2-6.3,38.5-36.2,48.9-58.3c13.9,3.8,17.1,10.2,11.4,22.8c-6.9,15.1-13.6,30.2-21,46.5c11.7-3.6,20.4-11.9,23.5-22.5
			c5.8-19.8,19.1-33.5,35.7-44.4c8.6-5.6,16.5-4.1,23.7,3.2c7.1,7.2,4.5,14.7,0.3,21.8c-7,11.9-17.4,19.2-31,22.4
			c-3.1,0.7-7.5,3.7-8,6.4c-0.8,4.2-0.3,10.1,2.2,13.2c1.7,2,8.8,2,11.7,0.1c11.6-7.4,23.2-14.8,28-29.4
			c5.5-16.6,18.2-27.7,32.3-37.2c8.8-6,17.4-4.9,24.8,2.7c7,7.2,3.7,14.9-0.2,22c-6.5,11.8-16.9,18.5-29.8,22.1
			c-3.7,1.1-8.1,4.7-9.3,8.1c-1.2,3.4,0.3,11,2.3,11.6c4.2,1.3,10.1,0.6,14.2-1.4c21.9-11,30.8-32.2,40-53
			C406.7,236.8,408.7,230.3,411.4,223.1z M355,269.9c14-5.6,23.1-12.3,28.5-24.7C369.3,244.6,360.7,251.8,355,269.9z M322.8,246.1
			c-1.2-1.3-2.4-2.6-3.6-3.8c-8.4,7.5-16.8,15-25.1,22.6c1,1.1,1.9,2.2,2.9,3.3C309.6,265.6,317.3,257.2,322.8,246.1z M231.2,277.1
			l0.4-0.8l-0.8-0.1L231.2,277.1z"/>
	</g>
</g>
</svg>
