<?xml version="1.0" encoding="utf-8"?>
<!-- Generator: Adobe Illustrator 24.2.1, SVG Export Plug-In . SVG Version: 6.00 Build 0)  -->
<svg version="1.1" xmlns="http://www.w3.org/2000/svg" xmlns:xlink="http://www.w3.org/1999/xlink" x="0px" y="0px"
	 viewBox="0 0 500 500" style="enable-background:new 0 0 500 500;" xml:space="preserve">
<style type="text/css">
	.st0{fill:#F2F2F2;}
</style>
<g id="Layer_2">
	<rect class="st0" width="500" height="500"/>
</g>
<g id="Layer_1">
	<g>
		<g>
			<path d="M357.5,376.1c3.6-11,5.7-21.8,3.6-33.1c-3.6-19.1-13.4-34.4-28.5-46.4c-21.9-17.4-44-34.7-65.9-52.2
				c-4-3.2-7.6-6.9-11.5-10.4c0.2-0.3,0.3-0.5,0.5-0.8c0.7-0.1,1.5-0.2,2.2-0.2c10.8,0,21.6-0.1,32.4,0.1c1.4,0,3,0.5,4.1,1.4
				c18.8,14.8,37.7,29.5,56.3,44.6c14.8,12,26.2,26.8,31.9,45.3c5.9,19.2,6.1,38.2-1.9,57c-0.1,0.2,0,0.3-0.1,0.9
				c5.7,0,11.4,0,17.1,0c0.8,2.4,0.1,3.6-2.6,4c-5.6,0.8-11.1,1.8-16.7,2.9c-1.1,0.2-2.3,0.9-2.9,1.8
				c-14.7,22.4-35.4,34.6-61.9,37.3c-16.6,1.7-32.8,0.6-48.5-5.3c-35.8-13.4-49.6-45-47.4-74.9c1.3-16.6,7.8-31.6,18.5-44.6
				c0.5-0.6,1-1.2,1.5-2c-20.5-22.7-40.9-45.3-61.6-68.3c1.1-0.1,1.7-0.2,2.3-0.2c8.3,0,16.6,0.1,24.9-0.1c2.4,0,4,0.8,5.7,2.5
				c22.3,24.4,44.6,48.9,66.9,73.2c14.7,16,30.2,31.3,46.8,45.4c9.7,8.3,20.1,15.6,31.8,20.8C355.6,375.3,356.3,375.6,357.5,376.1z
				 M241.3,305.5c-0.4,0.4-0.6,0.7-0.8,1c-8.9,14-13.9,29.2-13.9,46c0,17.6,5.6,32.9,18.8,45.1c14.9,13.8,32.5,19.8,52.7,18.6
				c16.2-1,31-6,43.5-16.7c3.7-3.1,6.9-6.7,9.6-11c-16.8-3.4-31.9-9.9-45.4-19.6c-17.1-12.3-32.3-26.6-46-42.7
				C253.7,319.2,247.5,312.4,241.3,305.5z"/>
			<path d="M78.9,76.5c0-1.2,0-2.2,0-3.6c1.1,0,2,0,2.9,0c31,0,62.1,0,93.1,0c13.8,0,27.1,2.1,39.3,9c18,10.1,28.6,25.4,31,46
				c2.2,18.3-0.8,35.6-10.5,51.4c-3.7,6.1-8.1,11.6-13.5,16.2c-0.8,0.7-2,1.4-3,1.4c-14.8,0.1-29.7,0.1-44.6-0.3
				c3.1-0.8,6.2-1.4,9.3-2.3c20.1-5.6,32.8-20.5,35.2-41.1c1.5-13,0.9-25.8-3.3-38.2c-4.3-12.5-11.5-22.9-24.4-27.6
				c-5.1-1.9-10.8-2.9-16.3-3.1c-14.2-0.4-28.5-0.1-42.7-0.1c-0.3,0-0.7,0.1-1.4,0.1c0,37.4,0,74.8,0,112.5c-8,0-15.6,0-23.6,0
				c0-1.1,0-2.1,0-3.2c0-30.7-0.2-61.4,0.1-92c0.1-14.5-10.8-25.8-24.9-25C80.8,76.6,79.9,76.5,78.9,76.5z"/>
			<path d="M78.9,324.5c0-1.2,0-2.2,0-3.5c1.8,0,3.4,0.1,5,0c13.5-0.9,22.5-10.6,22.5-24.3c0-20.1,0-40.1,0-60.2c0-1,0-2.1,0-3.2
				c7.9,0,15.5,0,23.5,0c0,1.2,0,2.4,0,3.5c0,20.1,0.1,40.1,0,60.2c0,9.2,3.7,16.4,11.6,20.8c3.5,1.9,7.9,2.3,11.8,3.2
				c1.1,0.3,2.3,0,3.7,0c0.2,1.2,0.4,2.2,0.5,3.5C131.3,324.5,105.2,324.5,78.9,324.5z"/>
			<path d="M244.5,196.7c1.2-5.7,1.8-11.4,3.5-16.7c5.5-16.6,16-29.2,32.2-36.3c11.1-4.9,22.9-5.9,34.8-4.8c7.6,0.7,15.2,2,22.8,3
				c1,0.1,2.1,0.2,3.2,0.2c3.9,0,7.7,0,12.1,0c0,14.8,0,29.3,0,44c-0.7,0-1.8,0-2.7,0c-0.9-4.3-1.4-8.5-2.8-12.5
				c-3.6-10.2-11-17.1-21-20.8c-14.1-5.2-28.3-5.5-41.6,2.4c-11.8,7.1-18.4,17.8-19.8,31.5c-0.3,3.1,0,6.3,0,9.8
				C258.5,196.7,251.9,196.7,244.5,196.7z"/>
			<path d="M196.5,221.9c0-5.4,0-10.6,0-16.2c2.8,0.1,5.6,0,8.2,0.4c4.2,0.7,6.3,3.9,6,8.3c-0.2,4-3.1,7-7.3,7.4
				C201.2,222.1,199,221.9,196.5,221.9z M199.7,208.7c0,3.6,0,7,0,10.5c2.9,0.1,6,0.5,7.1-2.4c0.7-1.8,0.6-4.5-0.2-6.2
				C205.3,208,202.3,208.5,199.7,208.7z"/>
			<path d="M13.7,215.7c0,2,0,4,0,6.1c-1.1,0-2,0-2.9,0c0-5.3,0-10.5,0-15.9c1.8,0,3.6-0.1,5.3,0c3.4,0.1,5.3,1.4,5.7,3.6
				c0.5,2.7-0.4,4.2-3.9,5.8c1.6,1.6,2,4.5,5.2,4.1c0.2,0,0.7,1,0.7,1.5c0,0.3-0.5,0.9-0.9,1c-2.2,0.5-4,0-5.3-2c-1-1.5-2-3-3-4.5
				C14.3,215.5,14,215.6,13.7,215.7z M13.8,213.3c1.8-0.6,3.3-0.9,4.7-1.6c0.3-0.2,0.3-2.1,0-2.3c-1.3-0.7-2.9-1-4.6-1.6
				C13.8,209.9,13.8,211.3,13.8,213.3z"/>
			<path d="M327.4,215.9c0-3.2,0-6.5,0-9.9c0.9-0.1,1.7-0.1,2.6-0.2c0,5.4,0,10.7,0,16.8c-1.5-0.9-2.8-1.3-3.5-2.2
				c-2.2-2.8-4.2-5.8-6.8-8.6c0,3.3,0,6.5,0,10c-1,0.1-1.8,0.1-2.7,0.2c0-5.4,0-10.6,0-16.8c1.5,0.9,2.8,1.3,3.5,2.2
				c2.2,2.8,4.2,5.8,6.3,8.7C327,216.1,327.2,216,327.4,215.9z"/>
			<path d="M386.3,212.3c2.7,0,4.9,0,7.4,0c0-2.1,0-4.2,0-6.3c1.2,0,2,0,3,0c0,5.3,0,10.5,0,15.8c-1,0-1.8,0-2.9,0
				c0-2.1,0-4.2,0-6.5c-2.5,0-4.9,0-7.5,0c0,2.1,0,4.2,0,6.5c-1.1,0.1-1.9,0.2-3,0.2c0-5.4,0-10.6,0-16c0.9,0,1.8,0,2.9,0
				C386.3,208.1,386.3,210.1,386.3,212.3z"/>
			<path d="M178.6,221.3c-6.4,2.7-7.1-3.6-10.6-6.3c0,2.6,0,4.6,0,6.8c-1.1,0-1.9,0-2.9,0c0-5.3,0-10.4,0-15.9c1.8,0,3.4,0,5.1,0
				c3.5,0.1,5.5,1.3,6,3.7c0.5,2.5-0.5,4.1-4,5.8c1.6,1.6,2,4.5,5.3,4.1C177.7,219.4,178.1,220.5,178.6,221.3z M168,213.4
				c1.9-0.7,3.5-1,4.8-1.8c0.3-0.2,0.2-2.1-0.1-2.3c-1.4-0.7-2.9-0.9-4.7-1.4C168,210,168,211.2,168,213.4z"/>
			<path d="M108.6,215.2c-2.7,0-5,0-7.5,0c0,2.1,0,4.2,0,6.6c-1,0.1-1.9,0.1-2.9,0.2c0-5.4,0-10.5,0-16c0.8,0,1.6-0.1,2.7-0.2
				c0,2.2,0,4.2,0,6.4c2.6,0,4.9,0,7.6,0c0-2,0-4,0-6.2c1.2,0,2,0,3,0c0,5.2,0,10.4,0,15.8c-0.9,0-1.7,0.1-2.8,0.1
				C108.6,219.7,108.6,217.6,108.6,215.2z"/>
			<path d="M427.1,212.3c0,1.1,0,1.8,0,2.8c-2.2,0-4.4,0-6.7,0c0,1.5,0,2.6,0,4.1c2.3,0,4.6,0,7,0c0.6,1.9,0.6,2.9-1.6,2.8
				c-2.7-0.1-5.5,0-8.4,0c0-5.3,0-10.6,0-16.1c3,0,6-0.1,9,0.1c0.4,0,1.2,0.8,1.2,1.2c0,0.4-0.7,1.2-1.2,1.3
				c-0.9,0.2-1.9,0.1-2.9,0.1c-3.5,0-3.5,0-3.1,3.9C422.5,212.3,424.6,212.3,427.1,212.3z"/>
			<path d="M447.1,206c4.1,0,7.9,0,12.4,0c-1.7,5.3-6.1,8.5-8.6,13.2c2.8,0,5.4,0,8.2,0c0,1,0,1.8,0,2.7c-4.2,0-8.3,0-13,0
				c1.6-5.3,6.1-8.5,8.7-13.4c-2.2,0-4.1-0.1-6,0C446.9,208.6,446.5,207.7,447.1,206z"/>
			<path d="M264.1,210.6c-1.2-0.5-2.1-0.8-3-1.2c-0.9-0.4-1.9-1.1-2.8-1.1c-0.7,0-1.8,1-1.9,1.7c-0.1,0.6,0.6,1.8,1.3,2.2
				c1,0.6,2.3,0.8,3.5,1.2c1.8,0.6,3.1,1.6,3.2,3.7c0.1,2.2-1.1,3.7-3,4.6c-4,1.8-8.1,0.1-9.2-4.3c0.8-0.2,1.6-0.4,2.5-0.6
				c1,2.4,2.7,3.5,5.1,2.6c0.6-0.2,1.4-1,1.4-1.6c0-0.6-0.6-1.5-1.2-1.8c-1.3-0.6-2.9-0.6-3.9-1.4c-1.2-0.9-2.7-2.4-2.7-3.6
				c0-1.4,1-3.5,2.2-4.3C258.9,204.1,263.3,206,264.1,210.6z"/>
			<path d="M298,221.7c-1.8,0.5-3.2,0.5-3.7-1.5c-0.3-1.6-1.4-2.1-2.9-1.9c-1,0.1-2-0.2-2.9,0.1c-0.9,0.3-2.2,0.8-2.5,1.6
				c-0.8,1.9-1.8,2.5-3.9,1.7c2.1-4.9,4.2-9.9,6.4-14.8c0.7-1.6,2.7-1.5,3.4,0.1C294,211.8,296,216.7,298,221.7z M287.8,215.5
				c1.8,0,3.1,0,4.7,0c-0.8-1.9-1.4-3.6-2.3-5.8C289.3,211.9,288.6,213.5,287.8,215.5z"/>
			<path d="M146.1,221.7c-2,0.6-3.3,0.3-3.7-1.6c-0.3-1.5-1.2-2-2.7-1.8c-1,0.1-1.9,0.1-2.9,0c-1.4-0.1-2.4,0.3-2.7,1.8
				c-0.4,1.9-1.6,2.3-3.7,1.7c1.2-2.7,2.3-5.4,3.5-8.1c0.9-2.1,1.7-4.3,2.7-6.3c0.3-0.6,1.2-1.2,1.9-1.3c0.5-0.1,1.5,0.6,1.7,1.2
				C142.1,211.9,144.1,216.7,146.1,221.7z M140.6,215.5c-0.8-2.1-1.5-3.8-2.4-5.9c-0.9,2.2-1.6,3.9-2.4,5.9
				C137.6,215.5,138.9,215.5,140.6,215.5z"/>
			<path d="M79.2,208.8c-0.7,0.5-1.2,1-1.8,1.4c-3.9-3-7.2-2.9-9.1,2.2c-0.8,2.3-0.4,4.6,1.8,6.2c1.9,1.4,4.4,0.9,7.3-1.3
				c0.6,0.5,1.2,1,1.7,1.5c-2,3.1-5.3,4.2-9.1,3c-3.1-0.9-5-3.6-5.1-7.3c-0.1-3.9,2-7.3,5.2-8.4C73.7,204.8,77,205.7,79.2,208.8z"/>
			<path d="M364.2,208.8c-0.6,0.5-1.1,1-1.7,1.4c-3.4-2.4-6.1-2.5-8-0.2c-1.8,2.2-1.8,6.2,0.1,8.1c1.9,1.9,4.9,1.6,7.7-0.9
				c0.6,0.5,1.3,1,1.9,1.5c-2,3.1-5.4,4.2-9.1,3.1c-3.1-0.9-4.9-3.6-5-7.3c-0.1-4.2,2-7.4,5.4-8.5
				C359.1,204.9,362.2,205.8,364.2,208.8z"/>
			<path d="M42.1,221.8c0-4.9-0.1-9.7,0.1-14.5c0-0.6,1.5-1.2,2.8-2.2c0,6.2,0,11.4,0,16.7C44.1,221.8,43.2,221.8,42.1,221.8z"/>
		</g>
	</g>
</g>
</svg>
