<?xml version="1.0" encoding="utf-8"?>
<!-- Generator: Adobe Illustrator 24.2.1, SVG Export Plug-In . SVG Version: 6.00 Build 0)  -->
<svg version="1.1" xmlns="http://www.w3.org/2000/svg" xmlns:xlink="http://www.w3.org/1999/xlink" x="0px" y="0px"
	 viewBox="0 0 500 500" style="enable-background:new 0 0 500 500;" xml:space="preserve">
<style type="text/css">
	.st0{fill:#F2F2F2;}
</style>
<g id="Layer_2">
	<rect class="st0" width="500" height="500"/>
</g>
<g id="Layer_1">
	<g>
		<path d="M196.3,271.7c-26.8,0-52.5,0-80.4,0c5.6-6.9,9.8-12.4,14.4-17.8c7.5-8.8,13.5-20.9,23.1-25.4c9.6-4.5,22.7-1.5,34.3-1.5
			c35.7-0.1,71.4,0,107.1,0c3.4,0,6.8,0,12,0c-7.6,10.7-14,19.8-20.5,29c-21.1,29.9-42.3,59.6-63.2,89.6c-3.2,4.6-6.5,6.3-12.1,6.3
			c-24.1-0.3-48.2,0-72.3-0.1c-22.2,0-43.2-5.1-62.6-16c-35-19.7-54.9-49-53.1-90c1.9-42.2,26-69.5,64.1-83.7
			c16.8-6.3,35.5-9.5,53.5-10c45-1.4,90-0.5,135-0.5c1.1,0,2.2,0.2,3.2,0.3c-11.9,16.4-23.6,32.8-35.7,48.7c-1.6,2.1-6,2.9-9.2,3
			c-29.6,0.2-59.2,0-88.8,0.2c-18,0.1-34.5,4.3-47.7,17.6c-19.9,20.2-16.7,52.1,6.6,68.1c10.9,7.5,23.2,10.4,36.1,11.1
			c3.8,0.2,7.7-0.7,11.3,0.2C176.2,306.7,185.1,288.7,196.3,271.7z"/>
		<path d="M367.6,300.6c-15.9-23.4-31-45.4-45.8-67.6c-2.2-3.4-2.8-7.9-4.7-13.6c-24.6,0-51.4,0-78.2,0c-0.5-0.7-1-1.3-1.6-2
			c16-19.6,30.9-40.3,48.5-58.4c15.2-15.6,40.7-13.8,57,0.9c3.6,3.3,7,7,9.8,11c40.3,58.2,80.5,116.4,120.8,174.7
			c1.1,1.6,2,3.2,3.6,5.7c-77.3,0-153.4,0-231.2,0c12.3-16.9,23.7-32.9,35.5-48.4c1.4-1.9,5.7-2.2,8.6-2.2
			C315.4,300.6,340.8,300.6,367.6,300.6z"/>
	</g>
</g>
</svg>
