<?xml version="1.0" encoding="utf-8"?>
<!-- Generator: Adobe Illustrator 24.2.1, SVG Export Plug-In . SVG Version: 6.00 Build 0)  -->
<svg version="1.1" xmlns="http://www.w3.org/2000/svg" xmlns:xlink="http://www.w3.org/1999/xlink" x="0px" y="0px"
	 viewBox="0 0 500 500" style="enable-background:new 0 0 500 500;" xml:space="preserve">
<style type="text/css">
	.st0{fill:#F2F2F2;}
</style>
<g id="Layer_2">
	<rect class="st0" width="500" height="500"/>
</g>
<g id="Layer_1">
	<g>
		<path d="M190.2,299.2c3.7,3.3,6.8,5.6,9.4,8.3c1,1,1.5,3,1.5,4.5c0.2,6.3,0,12.6,0.1,19c0.1,12.2,10.2,21.4,23.2,21.3
			c12.7,0,22.5-9.3,22.7-21.3c0.1-5.4-0.2-10.8,0.1-16.2c0.2-3.5-0.8-4.9-4.6-5.7c-25.8-5.1-43.2-20.2-50-45.6
			c-6.6-24.6,0.3-46,18.9-63.4c7.9-7.4,17.8-11.5,28.1-14.5c1.1-0.3,2.1-0.8,3.1-1.6c-15-0.5-30.1-2.1-44.7,2.9
			c-0.8-6.9,4.1-14.5,11.6-18c7.2-3.3,14.8-4,22.6-3.3c13.7,1.2,27.3,3.2,41,3.1c11.4,0,22.8-2.4,33.9-3.7
			c-1.3,9.2-14.3,20.5-26.3,22c-6.3,0.8-12.5,2-18.7,2.9c-2.8,0.4-3.9,1.7-3.8,4.6c0.2,5.4,0.1,10.8,0.1,16.7
			c1.4-0.6,2.4-0.9,3.2-1.3c23.5-12.5,48.8-0.2,53.3,26c6.1,35.4-17,67.8-52.5,73.3c-3.1,0.5-4.1,1.5-4.1,4.7
			c0.1,7.2,0.3,14.5-0.5,21.7c-1.9,16.8-17.4,28.4-35.9,27.5c-17.3-0.8-31.1-14.3-31.5-30.9C190,321.7,190.2,311,190.2,299.2z
			 M247,194.5c-32.2,7.6-47.9,31.8-45.7,57.5c2,24.3,24.8,47.3,45.7,46.1c0-6.1,0.1-12.2-0.1-18.3c0-1-1.6-2.4-2.8-2.9
			c-10.5-4.6-16.5-12.5-16.5-24c0.1-11.2,5.8-19.2,16.1-23.7c1.4-0.6,3.1-2.5,3.1-3.8C247.1,215.3,247,205.1,247,194.5z
			 M258.2,298.5c1.7,0,2.6,0.1,3.5,0c29.3-4.8,48.7-34.5,41.6-63.4c-2.5-10.2-9-16.2-19-18.6c-9.7-2.3-21.4,3.2-24.7,11.5
			c0.4,0.2,0.7,0.6,1.1,0.7c11,4.3,17.5,12.1,17.5,24.1c0,12.1-6.2,20.2-17.6,24.5c-1,0.4-2.2,1.9-2.2,2.9
			C258.1,286.1,258.2,292.1,258.2,298.5z M267.3,252.8c0-7.8-6.7-14.5-14.5-14.3c-7.9,0.2-14.4,6.8-14.3,14.6
			c0.1,7.9,6.6,14.3,14.5,14.2C261.1,267.2,267.3,260.9,267.3,252.8z"/>
		<path d="M315.8,140.7c-6.1,14.6-17.5,19.2-30.9,20.6c-14.4,1.5-28.6-0.8-42.7-2.9c-12.4-1.9-24.6-1.1-36.1,4.7
			c2.4-8,11.7-16.4,21.1-17c9.9-0.7,20-0.4,29.8,1.2C276.9,150.4,296.4,150.4,315.8,140.7z"/>
		<path d="M264.2,437.1c-1.4,0-2.9,0-5,0c0-8.3,0-16.7,0-25c-0.4-0.1-0.7-0.1-1.1-0.2c-2.2,5.8-4.2,11.7-6.6,17.4
			c-0.6,1.3-2.3,2.7-3.7,2.9c-1,0.1-2.7-1.5-3.3-2.8c-2.3-5.4-4.2-10.9-7.3-16.3c0,7.9,0,15.9,0,24c-2.3,0-3.8,0-5.7,0
			c0-12.8,0-25.5,0-38.1c4.9-1.5,7.5,0,8.9,5c1.9,6.6,4.6,13,7.5,20.8c2.8-7.6,5.5-14,7.5-20.7c1.3-4.4,3.2-6.8,8.7-5.1
			C264.2,411.4,264.2,424.1,264.2,437.1z"/>
		<path d="M186.5,437.2c4.7-12.5,9.2-24.6,13.9-36.6c0.4-0.9,2-1.8,3.1-1.8c0.9-0.1,2.3,0.9,2.6,1.8c4.6,12,9.1,24.1,13.7,36.2
			c-4.4,1.6-6.9,0.4-8.1-4c-0.3-1.2-2.4-2.4-3.8-2.7c-2.1-0.5-4.3,0.1-6.4-0.2c-4-0.5-6.7,0.5-7.6,5
			C192.8,439.1,189.4,436.7,186.5,437.2z M203.8,409.7c-0.4,0-0.8-0.1-1.2-0.1c-1.6,4.6-3.1,9.3-4.9,14.3c3.9,0,7.1,0,10.9,0
			C206.9,418.8,205.4,414.2,203.8,409.7z"/>
		<path d="M308.9,436.8c-4.1,1.1-7.1,0.8-7.8-3.8c-0.4-2.6-2.1-3.4-4.7-3.2c-2.1,0.2-4.3,0.2-6.5,0c-3.7-0.4-6.2,0.7-6.9,4.7
			c-0.8,4.3-4.1,2.5-7,2.8c0.4-1.5,0.6-2.6,1-3.7c3.9-10.5,7.8-21,11.9-31.5c0.5-1.4,2.2-3.2,3.4-3.3c1.1-0.1,2.9,1.7,3.5,3.1
			C300.3,413.5,304.5,425.1,308.9,436.8z M286.8,423.8c4,0,7.2,0,11.1,0c-1.8-5.2-3.5-9.9-5.6-15.8
			C290.3,414,288.6,418.7,286.8,423.8z"/>
		<path d="M253,105.7c-3.5-7.4-6.7-13.8-9.7-20.3c-0.5-1-0.1-2.7,0.5-3.9c2.8-6.1,5.8-12.2,9.2-19.3c3.6,7.6,6.9,14.3,10.1,21.2
			c0.2,0.5,0.1,1.3-0.2,1.8C259.7,91.7,256.5,98.3,253,105.7z"/>
		<path d="M154.3,433c2.4-2.1,4-4.1,7.6-1.9c4.1,2.5,8.1-0.5,8.2-5.8c0.2-7.1,0.1-14.1,0.1-21.2c0-1.7,0-3.3,0-5.4
			c2.1-0.1,3.7-0.2,6.1-0.3c0,4.4,0,8.6,0,12.9c0,4.6,0,9.2,0,13.8c0,5.2-1.6,9.4-6.7,11.6C164.4,439,158.8,437.6,154.3,433z"/>
		<path d="M345.5,431.5c0.1,2.1,0.2,3.6,0.3,5.4c-8.3,0-16.4,0-24.8,0c0-12.6,0-25.2,0-38c1.6,0,3.2,0,5.5,0c0,10.6,0,21.3,0,32.6
			C333.1,431.5,339.1,431.5,345.5,431.5z"/>
		<path d="M253.1,106.6c2.2,3,4.2,5.6,6.5,8.7c-2,2.8-4.1,5.7-6.3,8.7C245.5,116.2,245.5,115.8,253.1,106.6z"/>
		<path d="M252.9,125.5c5.7,6.2,5.7,6.2,0.4,12.5C247.3,133.2,247.2,132.4,252.9,125.5z"/>
		<path d="M244.3,251.8c2.5-2.6,5.3-5.6,8.1-8.6c3.1,3.1,6,6,8.8,8.8c-3,2.9-5.9,5.8-9.2,9C249.7,258.2,247,255,244.3,251.8z"/>
	</g>
</g>
</svg>
