<?xml version="1.0" encoding="utf-8"?>
<!-- Generator: Adobe Illustrator 24.2.1, SVG Export Plug-In . SVG Version: 6.00 Build 0)  -->
<svg version="1.1" xmlns="http://www.w3.org/2000/svg" xmlns:xlink="http://www.w3.org/1999/xlink" x="0px" y="0px"
	 viewBox="0 0 500 500" style="enable-background:new 0 0 500 500;" xml:space="preserve">
<style type="text/css">
	.st0{fill:#F2F2F2;}
	.st1{fill:none;stroke:#000000;stroke-width:2.1377;stroke-linecap:round;stroke-linejoin:round;stroke-miterlimit:10;}
</style>
<g id="Layer_2">
	<rect class="st0" width="500" height="500"/>
</g>
<g id="Layer_1">
	<g>
		<path d="M125.2,269.4c0,1.1,0,2,0,3c-8.3,0-16.4,0.2-24.6-0.1c-3.1-0.1-6.2-1.3-8.6-3.7c-3.2-3.2-5.3-6.9-7.7-10.7
			c-4.2-7-7.7-14.3-12.2-21.1c-2.3-3.4-3.7-7.4-5.8-10.9c-2.6-4.3-4.9-8.9-8.4-12.5c-2.3-2.4-5.1-5.1-9-5.1c-1.8,0-2.8-1.3-4-2
			c0.2-0.6,0.3-0.7,0.4-0.9c0.1-0.1,0.3-0.3,0.4-0.3c11.4,0,22.8,0,34.2,0c0.1,0.1,0.2,0.3,0.3,0.4c4.6,1.7,6.6,5.5,8.8,9.5
			c3,5.5,5.9,11.1,9.4,16.4c3.4,5.2,5.6,11.2,8.7,16.6c3.3,5.6,6.9,11.1,10.7,16.4C119.6,266.8,121.9,269.1,125.2,269.4z"/>
		<path d="M244.9,232.9c0.7,5.9-1.1,11.5,1.3,16.7c1.9,0.7,3.6,1.2,5.2,1.8c0,0.6,0,1,0,1.6c-7.7,0-15.5,0-23.8,0
			c0.5-0.8,0.8-1.6,1.3-1.8c1.8-0.9,3.6-1.5,5.4-2.2c0-12.9,0-25.3,0-37.9c-1.5-2.3-4.1-2.4-6.9-3.2c0.7-1,1.2-1.7,1.9-2.7
			c7.8,0,15.8,0,23.8,0c2.8,1.8,6.4,0.3,9.3,2.1c1.3,0.8,4.3,2.8,5.2,3.3c2.5,1.7,1.4,4.8,3.1,6.8c-1.6,1.6-0.8,3.6-1,5.5
			c-1.4,1.4-2.9,3.1-4.5,4.4c-1.5,1.2-3.3,2.1-5.3,3.3c4.5,5.8,7.6,12.7,13.1,17.9c2.2,2,4.3,3.8,7.4,3.8c0,0.7,0.1,1,0.1,1.6
			c-6,1.2-11.8-0.1-18.1-2.2c-2.7-2.2-5-5.6-7.1-9.2c-1.9-3.3-4-6.6-6-9.6C247.7,232.9,246.6,232.9,244.9,232.9z M245.2,209.5
			c0,7,0,13.5,0,20c10.4,1.2,13-5,13.7-11c0.3-2.6-1.4-4.4-3-6.2C253,208.9,249.2,209.3,245.2,209.5z"/>
		<path d="M18.5,272.4c0-1.1,0-1.7,0-2.6c0.7-0.4,1.4-1.2,2.3-1.4c4.6-1.1,6.5-5,8.5-8.6c2.6-4.9,4.8-10.1,7.3-15.1
			c1-1.9,2.2-3.7,3.2-5.3c8.8,0,17.2,0,26,0c-3.2,6.3-5.4,12.6-8.7,18.5c-2.1,3.8-4.2,7.3-7.3,10.3c-2.8,2.8-6.2,4-10,4.1
			C32.8,272.5,25.9,272.4,18.5,272.4z"/>
		<path d="M456.7,205.2c1.7,3.7,3.9,7.2,4.9,10.9c1.2,4.5,3.2,8.7,4.9,12.9c2.5,6.6,5.2,13.1,8.5,19.4c0.2,0.5,0.7,0.8,1.2,1.3
			c1.9,0.4,4.1,0.5,5.4,2.7c-3.8,1-17.6,1.1-23.7,0.3c0-0.3-0.1-0.7-0.1-1.3c1.6-0.6,3.3-1.2,5-1.8c0.1-2.7-1.7-7.5-4.2-11.1
			c-0.3-0.1-0.6-0.2-1-0.2c-4.4,0-8.9,0-13.2,0c-1.1,3.5-2.2,6.9-3.4,10.6c0.8,2.1,5.1,0,5.1,3.7c-3.7,0.8-12.9,0.9-18.2,0.1
			c0.3-2.2,1.6-2.9,3.7-2.7c3-2.7,5.2-5.8,6.1-10.1c0.5-2.6,2.3-5,3.3-7.7c1.6-4.3,4-8.3,5.9-12.5c1.6-3.6,3.1-7.2,4.5-10.9
			C452.1,206.4,453.3,204.8,456.7,205.2z M451.9,219.2c-2.9,5.1-4.2,9.8-6.2,14.6c3.9,0,7.3,0,11,0C456.1,228.9,453,225,451.9,219.2
			z"/>
		<path d="M219,253c-8.2,0-15.6,0-23.6,0c0.7-0.9,1-1.6,1.5-1.9c1.3-0.6,2.8-1.1,4.5-1.7c-1.6-3.6-3.1-7.2-4.8-10.9
			c-4.7,0-9.4,0-14.5,0c-1.2,3.5-2.5,7.2-3.7,10.9c2.1,0.8,4,1.5,5.7,2.1c-0.1,0.7-0.1,1-0.2,1.5c-5.9,0-11.9,0-18,0
			c-0.1-2.9,1.9-3,3.8-3.1c2.3-2.3,4.9-4.4,4.9-8.1c3.5-5.8,5.4-12.4,8.3-18.4c2.9-5.9,5.2-12.1,7.9-18.2c1.2,0,2.4,0,4,0
			c1.4,3.1,3.1,6.1,4.2,9.4c2.3,6.9,5.4,13.4,7.9,20.2c1.3,3.7,2.9,7.3,4.5,10.9c1,2.2,1.9,4.4,5.1,4.4
			C217.2,250.1,217.9,251.6,219,253z M183.9,233.8c3.9,0,7.3,0,11.2,0c-2.1-4.8-3.5-9.5-5.9-14.7C187.2,224.5,185.6,229,183.9,233.8
			z"/>
		<path d="M331.2,239.4c1.4,0,2.1,0,3,0c1.8,3.3,3.5,6.9,7,9c4.7,2.8,8.5,4.9,13.9-1c0.2-0.3,0.5-0.5,0.9-0.9c0-1.7,0-3.6,0-5.1
			c-1.7-5.7-6.7-6.6-10.9-8.4c-5.6-2.4-10.4-5.3-11.9-11.8c-0.5-2-0.5-3.7,0.3-5.8c1.9-4.8,5.2-8.2,9.9-9.5c3.5-1,7.2-3.4,11.1-0.8
			c2.8-0.4,5.3,0.9,7.8,1.5c0.5,3.3,1,6.5,1.5,9.8c-0.7,0.6-1.5,1.3-2.5,2.1c-2-4-3.6-7.9-8.7-10c-0.9,0-3,0-5.5,0
			c-4,1.3-5.3,4.5-4.7,9c3,3.1,6.3,5.7,11.1,7.2c5,1.6,10.1,4.3,12.4,10.5c0,1.8-0.2,4.3,0.1,6.8c0.1,1.5-0.4,2.7-1.2,3.8
			c-3.4,5.1-7.9,8.5-14.3,8.5c-2.5,0-5,0-7.5,0c-3.7,0.1-6.9-1.2-10-3.3C332.4,247.3,331.8,243.6,331.2,239.4z"/>
		<path d="M380.7,217.8c-1.5,0-2.7,0-4.3,0c0.4-2,1-3.7,1.2-5.5c0.2-1.9,0-3.9,0-5.6c0.5-0.5,0.9-0.9,1.4-1.4c14.2,0,28.6,0,43,0
			c2,3.9,1.5,8.2,1.4,12.6c-1,0-1.7,0.1-2.4,0.1c-0.6-0.9-1.4-1.8-1.8-2.9c-1.6-4.5-3-5.6-7.2-5.7c-1.2,0-2.5,0-3.7,0
			c-0.9,0-1.7,0-3,0c0,4.2,0,8.2,0,12.3c0,7.3,0,14.6,0,21.9c0,1,0,2.2,0.4,3c0.9,1.8,1.4,3.9,4.3,3.5c1.1-0.1,2.4,0.9,3.7,1.5
			c0,0.4,0,0.8,0,1.4c-8.9,0-17.7,0-26.5,0c0-0.6-0.1-0.9-0.1-1.7c2-0.6,4-1.1,6.5-1.8c0.3-1.2,1-2.8,1-4.4
			c0.1-11.7,0.1-23.5,0.1-35.2C387.5,208.3,381.9,209.4,380.7,217.8z"/>
		<path d="M307.8,249.4c2.4,0.9,4.1,1.5,5.7,2.1c-0.1,0.7-0.2,1-0.3,1.5c-7.7,0-15.4,0-23.1,0c-0.1-0.5-0.1-0.8-0.3-1.5
			c1.6-0.6,3.2-1.2,5.3-2c1.3-1.7,1.2-4,1.2-6.5c0-9.1,0-18.1-0.1-27.2c0-2-0.5-4-0.8-6.1c-1.9-0.7-3.6-1.2-5.5-1.9
			c0-0.7,0-1.6,0-2.6c7.7,0,15.3,0,23.2,0c0.1,0.8,0.1,1.7,0.2,2.6c-1.8,0.6-3.4,1.1-4.9,1.6c-1.4,1.9-1.5,4-1.5,6.3
			c0.1,9.3,0,18.5,0.1,27.8C307.1,245.6,307.6,247.5,307.8,249.4z"/>
		<path d="M18.5,295.8c0-1.4,0-2.6,0-3.9c35.5,0,70.8,0,106.6,0c0.1,1.1,0.1,2.4,0.2,3.9C89.7,295.8,54.4,295.8,18.5,295.8z"/>
		<path d="M246.3,288.6c-3.2,0-5.8,0-8.6,0c0,2.4,0,4.6,0,7.2c-1.1,0.1-2.1,0.1-3.1,0.2c0-5.9,0-11.5,0-17.6c1.2,0.7,2,1.2,3,1.8
			c0,2,0,3.9,0,6c2.8,0,5.4,0,8.4,0c0-2.2,0-4.6,0-7.7c1.5,0.8,2.5,1.2,3.2,1.6c0,5.5,0,10.6,0,15.8c-1,0-1.8,0-2.9,0
			C246.3,293.6,246.3,291.3,246.3,288.6z"/>
		<path d="M190.8,278.9c2,0,3.8,0,5.6,0c5.1,0,5.8,0.5,8.1,6c-0.4,0.9-0.6,2.1-1.2,3.1c-0.6,0.8-1.6,1.3-2.6,2.1
			c1.3,2.1,2.4,3.8,3.6,5.7c-0.6,0.1-1.4,0.2-2.6,0.4c-1.2-1.6-2.6-3.4-4-5.3c-1.4,0-2.9,0-4.8,0c-0.1,1.4-0.2,3.1-0.4,4.9
			c-0.5,0.1-1,0.2-1.7,0.3C190.8,290.3,190.8,284.6,190.8,278.9z M201.2,287.7c0-1.9,0-2.9,0-4c-0.5-0.5-1-0.9-1.4-1.3
			c-2.5,0-4.8,0-7,0c0,2.2,0,4.1,0,6.4C195.7,288.4,198.3,288.1,201.2,287.7z"/>
		<path d="M289,280.3c0.6-0.6,0.9-0.9,1.3-1.3c3.7,0,7.4,0,11.6,0c-0.5,1.1-0.9,2-1.3,2.9c-2.7,0-5.4,0-8.3,0
			c-0.1,1.5-0.1,2.8-0.2,4.3c2.8,0,5.5,0,8.1,0c0.2,0.6,0.4,1.1,0.7,1.9c-2.8,0.8-5.6,0-8.5,0.5c0,1.6,0,3.3,0,5.1c3,0,6,0,9.1,0
			c0.1,0.6,0.3,1.1,0.4,1.6c-0.3,0.2-0.6,0.6-0.9,0.6c-3.9,0-7.8,0-11.8,0C289,290.7,289,285.6,289,280.3z"/>
		<path d="M174.3,278c2.7,2.9,3.8,5.6,4.6,8.8c0.8,2.9,2.8,5.5,4.3,8.1c-0.2,0.4-0.3,0.7-0.4,0.7c-0.8,0.2-1.7,0.3-2.5,0.4
			c-0.7-1.5-1.3-2.8-1.9-4.3c-2.6,0-5.2,0-7.7,0c-1.9,0.9-1.3,4.6-5,4C168.2,289.7,170.3,283.8,174.3,278z M171.4,289.4
			c2,0,4.1,0,6.3,0c-1.3-2.3-2.5-4.3-3.9-6.7C172.9,285.3,172.2,287.2,171.4,289.4z"/>
		<path d="M348.4,282.9c1.5-1.5,2.6-2.6,3.9-3.9c2.1,0,4.4,0,6.8,0c0.5,0.7,1,1.5,1.8,2.7c-3.2,0.7-6.3-2.1-9,1
			c0,0.4-0.1,1.1-0.1,2.1c3.1,1.1,6.3,2.2,9.5,3.4c0,2,0,3.6,0,5.1c-0.8,0.9-1.7,1.8-2.5,2.6c-2.6,0-5.1,0-7.3,0
			c-1.2-0.7-2.1-1.2-3.8-2.1c1.1-0.6,1.6-1.1,2.1-1c2.5,0.4,5,0.9,7.6,1.4c0.8-0.8,1.4-1.5,2.3-2.4c-1-0.8-1.7-1.8-2.6-2.2
			c-2.3-0.9-4.7-1.5-7.1-2.3C349.6,285.9,349,284.5,348.4,282.9z"/>
		<path d="M224.1,291.3c0.9,1.4,1.4,2.1,1.9,2.8c-3.6,1.9-3.6,1.9-9,1.9c-2.6-1.3-5.1-2.7-5.9-5.8c-0.9-5,0.5-9,6.1-11.2
			c3.1-0.1,6.8-0.7,9.8,2.8c-0.6,0.5-1.2,1-1.9,1.7c-1.5-0.8-3-1.6-4.4-2.3c-1.2,0.4-2.4,0.9-4.4,1.6c-0.2,0.3-1,1.2-2.1,2.4
			c0,1.3,0,3.1,0,5.1c1.1,1,2.5,2.2,4.1,3.6c0.9,0,2.3,0,4,0C222.7,293.2,223.3,292.3,224.1,291.3z"/>
		<path d="M322.7,291.8c0.4,0.4,0.8,0.8,0.8,0.8c-0.9,0.9-1.8,1.8-3.3,3.3c-0.5,0-2.3,0-4,0c-3.2,0-5.6-1.5-6.9-4.3
			c-1.9-4.1-1.4-6.4,1.2-9.2c2.9-3.2,4-3.6,9.8-3.6c1.3,0.8,2.7,1.7,4.1,2.5c-0.7,0.7-1.2,1.2-1.9,1.9c-1.4-0.7-2.8-1.4-4.6-2.3
			c-1.2,1.5-4.1,0.5-5.4,2.7c-1.2,2-1.3,4.2-0.9,6.5C316,294.7,317.2,294.8,322.7,291.8z"/>
		<path d="M267.5,280.5c0.5-0.5,1-1,1.5-1.5c4.4,0,8.8,0,13.8,0c-0.5,1.1-0.9,2-1.4,2.9c-1.3,0-2.5,0-4.1,0c0,4.7,0,9.2,0,13.9
			c-1.2,0-2,0-3.3,0c0-4.4,0-8.9,0-13.6c-1.9,0-3.5,0-4.8,0C268.5,281.5,268,281,267.5,280.5z"/>
		<path d="M338,295.9c-1.2,0-2,0-3.2,0c0-4.6,0-9.1,0-13.8c-1.9,0-3.4,0-5.2,0c0-1,0-1.8,0-2.9c-0.1,0.1,0-0.2,0.2-0.2
			c4.4,0,8.8,0,13.3,0c0,0.8,0,1.6,0,2.8c-1.4,0.1-3.1,0.2-5.1,0.4C338,286.7,338,291.3,338,295.9z"/>
		<path d="M257.9,295.8c0-5.3,0-10.4,0-15.4c0.6-0.5,1-1.1,1.6-1.5c0.2-0.2,0.7,0,1.3,0c0,5.6,0,11.2,0,16.9
			C260,295.8,259.2,295.8,257.9,295.8z"/>
		<path class="st1" d="M123.2,293.8c-34.2,0-68.4,0-102.6,0"/>
		<path class="st1" d="M55.8,207.8c-3.4-0.5-6.8-1.1-10.2-1.6"/>
		<path class="st1" d="M361.5,217.4c1.3-1.2,0.2-2.6-0.1-3.7c-0.4-1.7-1.5-3.2-2.4-5c-6.2-3.1-12.6-4.1-18.3,1.8"/>
		<path class="st1" d="M356.7,249.5c-7.1,5.7-14,3.3-20.8-0.5c0.3-3.1-2.9-5-2.7-8"/>
		<path class="st1" d="M359.9,281c-5.2-1.7-5.7-1.6-9.6,1.6c-0.4,2.2,0.7,3.5,2.7,4.3c1.2,0.4,2.5,0.8,3.7,1.1
			c2.4,0.5,4,1.5,3.7,5.1c-0.5,0.3-1.5,0.8-2.6,1.4c0.2,0.2,0.4,0.4,0.5,0.5c-1.6,0-3.2,0.1-4.8,0c-1.4-0.2-2.9-0.7-4.3-1"/>
		<path class="st1" d="M322,281.5c-4.5-2.2-7.5-1.9-10.1,1.1c-1.8,2.1-2.9,4.5-1.7,7.5c1.1,2.9,3.3,4.2,6,4.7
			c2.2,0.4,4.6,0.5,6.4-1.5"/>
		<path class="st1" d="M224.7,281.5c-2.5-1.6-5.1-2.2-8.6-1.6c-1.4,1.4-2.9,2.9-3.7,3.7c0,2.9,0,4.6,0,6.4c-0.2,0.2-0.4,0.4-0.7,0.7
			c1.6,1.6,3.3,3.1,4.6,4.4c3.2-0.7,6,0.8,7.8-1.9"/>
		<path class="st1" d="M240.2,231.3c1.8,0,3.6,0.1,5.3,0c2.4-0.2,4.7,0.2,6.9,1.1"/>
		<path class="st1" d="M271.7,251.6c2.7,0.5,5.3,1.1,8,1.6"/>
		<path class="st1" d="M199.6,290.1c1.6-1.7,3.6-3.1,3.1-6.6c-0.7-0.7-1.9-1.9-3.1-3.1c-2.5,0-5,0-8,0c0,5,0,10,0,15"/>
		<path class="st1" d="M256.8,208.9c-3.3-1.3-6.6-1.9-10.2-1.7c-2.1,0.1-3.9,0.6-5.3,2.2"/>
		<path class="st1" d="M421.9,216.3c-0.7-2.7-0.2-5.9-3.4-8.2c-3.6-1.4-8.2-0.9-12.6-0.8c-1.4,0-2.9,1.3-4.3,2"/>
		<path class="st1" d="M472.7,250.3c2.5,1.4,5.3,1.4,8,1.9"/>
		<path class="st1" d="M398.4,209.4c-1.4-0.7-2.8-2-4.3-2c-4.1-0.1-8.2,0.3-11.7,0.5c-3.1,2.6-2.1,6.3-4.3,8.5"/>
		<path class="st1" d="M192.1,215.3c-3.4,1.4-5.4,3.8-6.5,7.4c-1.3,3.9-3.2,7.7-4.2,11.8c-0.1,0.4-0.3,0.7-0.5,1.1
			c-2.5,4.4-3.9,9.3-6,14.5c-2.7,0.7-5.6,1.4-8.5,2.1"/>
		<path class="st1" d="M450.8,217.9c-4.1,4.6-5.4,10.5-7.4,16.1c-0.3,0.9-0.6,1.8-1.1,2.7c-1.9,4.2-3.4,8.5-5.2,13
			c-2.5,1.3-5.7,1.9-8.8,2.5"/>
		<path class="st1" d="M199.6,234.5c-5.8,2.3-11.7,1.9-17.6,1.1"/>
		<path class="st1" d="M461.4,234.5c-5.8,2.3-11.7,1.9-17.6,1.1"/>
		<path class="st1" d="M301.1,279.9c-3.4,0.3-6.8,0.6-10.7,0.9c0,1.6,0,3,0,4.5c0,1.6,0,3.2,0,4.8c0,1.4,0,2.9,0,4.8
			c3.6,0,7.1,0,10.7,0"/>
		<path class="st1" d="M260,279.4c-0.2,2.9-0.4,5.7-0.5,8.6c-0.1,2.1,0,4.3,0,6.4"/>
		<path class="st1" d="M387.7,252.1c1.8-0.2,3.6-0.2,5.3-0.6c1.1-0.2,2.1-1,3.2-1.5"/>
		<path class="st1" d="M404.3,250.3c2.8,1.5,5.9,1.8,9.1,1.9"/>
		<path class="st1" d="M336.4,281.5c0,4.3,0,8.6,0,12.8"/>
		<path class="st1" d="M275.5,281.5c0,4.3,0,8.6,0,12.8"/>
		<path class="st1" d="M301.7,247.9c-3.3,2.5-6.9,4.4-11.2,4.3"/>
		<path class="st1" d="M238.1,248.9c-2.6,2.9-6.3,2.6-9.6,3.2"/>
		<path class="st1" d="M237,287.4c3.2,0,6.4,0,9.6,0"/>
		<path class="st1" d="M182.5,294.9c-2.7-1.1-2.8-3.7-3.8-5.9c-1.2-2.6-2.5-5.1-3.9-7.8c-3.5,1.8-3.8,5.3-4.9,7.9
			c-0.9,2-1.9,3.9-2.9,5.8"/>
		<path class="st1" d="M291.5,287.4c2.9,0,5.7,0,8.6,0"/>
		<path class="st1" d="M170.2,290.1c2.7,0.7,5.3,1,8,0"/>
		<path class="st1" d="M235.4,279.4c0.2,0.4,0.5,0.7,0.5,1.1c0,2.5,0,5,0,7.5c0,2.1,0,4.3,0,6.4"/>
		<path class="st1" d="M247.1,279.4c0.2,2.9,0.4,5.7,0.5,8.6c0.1,2.1,0,4.3,0,6.4"/>
		<path class="st1" d="M281.9,279.9c-4.6,1.3-9.3,0.3-13.9,0.5"/>
		<path class="st1" d="M203.9,295.4c-3.1-0.4-3.1-3.6-5.3-5.9c-1.6,0-3.8,0-5.9,0"/>
		<path class="st1" d="M341.7,280.5c-3.6,0-7.1,0-10.7,0"/>
	</g>
</g>
</svg>
