<?xml version="1.0" encoding="utf-8"?>
<!-- Generator: Adobe Illustrator 24.2.1, SVG Export Plug-In . SVG Version: 6.00 Build 0)  -->
<svg version="1.1" xmlns="http://www.w3.org/2000/svg" xmlns:xlink="http://www.w3.org/1999/xlink" x="0px" y="0px"
	 viewBox="0 0 500 500" style="enable-background:new 0 0 500 500;" xml:space="preserve">
<style type="text/css">
	.st0{fill:#F2F2F2;}
</style>
<g id="Layer_2">
	<rect class="st0" width="500" height="500"/>
</g>
<g id="Layer_1">
	<g>
		<path d="M221.9,267.4c18.8,8.4,37.6,16.8,56.8,25.4c0-21,0-41.5,0-62.6c5.8,2.6,11.1,4.9,16.4,7.3c11.2,5,22.4,9.9,33.7,14.9
			c15.3,6.8,26.1,18.2,33.6,32.9c5,9.8,7.5,20.3,7.5,31.1c0,17.9-5.7,33.9-17.4,47.8c-9,10.6-20.2,17.6-33.1,22.1
			c-0.3,0.1-0.6,0.1-1.8,0.1c7.6-4,13.3-8.9,17.6-15.5c10.6-16.1,8.4-38.3-5.1-52.1c-5.4-5.5-11.9-8.8-18.8-11.7
			c-10.7-4.5-21.2-9.3-32.4-14.3c0,1.8,0,3.1,0,4.4c0,34.9,0.2,69.9-0.1,104.8c-0.1,15,10.7,30.2,26,33.8c6.2,1.5,12.8,1.2,19.2,1.5
			c4.3,0.2,8.6,0,13.1,0c0,3.9,0,7.6,0,11.6c-58,0-116.1,0-174.3,0c0-3.7,0-7.4,0-11.6c7.1,0,14.3,0.2,21.4-0.1
			c3.6-0.1,7.3-0.5,10.9-1.4c14.9-3.7,26.1-18.2,26.1-33c0-43.7,0.2-87.5,0.4-131.2c0-1.5,0.4-2.9,0.5-4.4
			C222,267.3,221.9,267.4,221.9,267.4z"/>
		<path d="M222,205.3c-0.2-1.5-0.5-2.9-0.5-4.4c0-32.8,0-65.7,0-98.5c0-8.3-1.1-16.2-5.9-23.4c-7.2-10.7-17.3-15.8-29.9-16.3
			c-7.5-0.3-15.1,0-22.8,0c0-4,0-7.7,0-11.7c58,0,116,0,174.3,0c0,3.7,0,7.4,0,11.6c-6.6,0-13.3,0.1-20,0
			c-10.2-0.2-19.3,2.6-26.9,9.6c-7,6.6-11.3,14.5-11.3,24.2c-0.1,42.6,0,85.2,0,127.8c0,1.7,0,3.5,0,5.8c-4.5-2-8.6-3.8-12.7-5.6
			c-14-6.2-28.1-12.4-42.1-18.6C223.3,205.5,222.7,205.4,222,205.3L222,205.3z"/>
		<path d="M222,205.2c-0.1,0.8-0.4,1.6-0.4,2.3c0,19.3,0,38.5,0,57.8c0,0.7,0.2,1.4,0.3,2c0,0,0.1-0.1,0.1-0.1
			c-13.4-5.9-26.8-11.8-40.2-17.8c-8-3.6-16.4-6.5-23.4-12.1c-14.9-11.8-24.1-26.8-27.3-45.6c-3.2-19.3,1-36.9,11.8-53
			c8.9-13.2,25.3-25.1,39.3-28c-7.7,4-13.6,9-17.7,15.7c-13.8,22.2-4.7,51.6,19.8,61.6c12.4,5.1,24.5,10.7,36.8,16.2
			C221.5,204.5,221.7,205,222,205.2C222,205.3,222,205.2,222,205.2z"/>
		<path d="M214,382.2c-26.3,0-54.3,0-82.6,0c0-26.3,0-52.5,0-78.9c2.6,0,5.1,0,7.7,0C144.8,348.8,170.1,375.3,214,382.2z"/>
		<path d="M369.8,188.7c-2.9,0-5.6,0-8.1,0c-5-43.4-28.8-69.5-70.9-78.5c25.9,0,52.3,0,79,0C369.8,136.2,369.8,162.3,369.8,188.7z"
			/>
	</g>
</g>
</svg>
