<svg id="Layer_1" data-name="Layer 1" xmlns="http://www.w3.org/2000/svg" viewBox="0 0 800 600"><defs><style>.cls-1{fill:#0f89af;}.cls-2{fill:#fffdfd;}</style></defs><path class="cls-1" d="M427.37,152.73c-6.2,5.93-12.15,12.2-18.75,17.63-2.42,2-6.45,2.76-9.76,2.87-36,1.09-72,1.94-108,2.93-30.83.85-55.2,18.64-64.73,47.17-9.22,27.65.33,58.2,24.27,76.55,12.74,9.77,27.35,13.89,43.44,13.49q13.89-.35,27.76-.56l23.37-.4q.22,11.88.46,23.78c-7.78.16-15.59.29-23.38.43-8.93.15-17.88.29-26.8.4-63.4.8-109.53-57.51-92.44-116.83,7.65-26.53,24.52-45.42,48.76-58.73,12.33-6.78,25.08-8.82,38.55-9.09q65.66-1.34,131.3-2.53c1.41,0,2.82.21,4.23.32Z"/><path class="cls-1" d="M369.32,382c-7.74.15-15.48.31-23.22.44l-23.09.45-22.18.43c-16.35.31-32.35-1.59-45.76-11.79-7-5.35-12.71-12.45-19-18.73.65-1.14,1.28-2.31,1.91-3.45,2.73.38,5.68.2,8.16,1.21,15,6.06,30.41,9.4,46.72,9q14.81-.33,29.63-.58c7.76-.16,15.55-.32,23.32-.45l23.07-.4Q369.09,370.1,369.32,382Z"/><path class="cls-1" d="M478.36,376.45c-.65.91-1.29,1.81-1.94,2.7-3.49.34-7,.92-10.48,1q-36.48.74-73,1.43-11.81.24-23.63.45-.22-11.92-.46-23.83l23.47-.45q24.76-.47,49.56-1.12c9.33-.25,16.51,1.54,22.78,8.79C468.43,369.78,473.75,372.82,478.36,376.45Z"/><path class="cls-1" d="M472.46,105.21c-6.11,6-11.85,12.49-18.51,17.83-2.86,2.3-7.6,3-11.51,3.14-44.61,1-89.23,2.08-133.85,2.54-25.24.26-49.9,2.25-72.55,14.83-1.95,1.08-4.35,1.35-7.93,2.41a55.13,55.13,0,0,1,2.73-5.9c13.77-21.78,33.86-33.26,59.33-33.93,58.88-1.54,117.78-2.38,176.68-3.48a40.36,40.36,0,0,1,4.24.34C471.55,103.73,472,104.47,472.46,105.21Z"/><path class="cls-1" d="M431.6,330.89l-2,3c-2.5.25-5,.67-7.54.71l-30.29.63c-7.77.16-15.56.34-23.32.49s-15.35.32-23,.45q-.22-11.88-.46-23.78,11.51-.21,23-.47t23.09-.63c1.24,0,2.44-.07,3.67-.11,9.36-.32,16.52,1.61,22.83,8.79C421.39,324.38,426.85,327.31,431.6,330.89Z"/><path class="cls-2" d="M391.07,311.31q-11.54.4-23.09.63-.33-18.4-.69-36.79c0-1.41.2-2.82.31-4.23l2.58-1.74c5.92,6.19,12.19,12.15,17.63,18.75,2,2.41,2.75,6.44,2.86,9.75Z"/><path class="cls-2" d="M554.46,401.33c.81,63.39-57.52,109.53-116.82,92.43-26.54-7.65-45.42-24.52-58.74-48.75-6.78-12.33-8.81-25.09-9.08-38.56q-.24-12.21-.5-24.43-.22-11.92-.46-23.83c-.14-7.48-.3-15-.43-22.45,7.76-.15,15.55-.33,23.32-.49q.3,11.25.58,22.49.33,11.91.62,23.83c.23,8.06.43,16.09.65,24.14.85,30.84,18.64,55.2,47.17,64.71,27.66,9.25,58.2-.31,76.55-24.25,9.78-12.76,13.9-27.34,13.49-43.43-.8-33.66-1-67.31-2.17-100.94-.31-9.35,1.61-16.51,8.8-22.82,4.38-3.83,7.31-9.29,10.89-14l3,2c.25,2.51.67,5,.72,7.52C552.92,316.77,553.93,359.06,554.46,401.33Z"/><path class="cls-2" d="M566.82,458.58c.37-2.73.21-5.67,1.21-8.15,6.06-15,9.4-30.42,9-46.73-1.1-49.68-1.66-99.38-3-149.06-.26-9.32,1.53-16.51,8.77-22.76,4.37-3.77,7.41-9.08,11-13.7l2.72,1.94c.33,3.49.91,7,1,10.48q1.65,82.56,3.19,165.12c.31,16.35-1.6,32.36-11.8,45.75-5.35,7-12.43,12.72-18.72,19C569.11,459.85,568,459.22,566.82,458.58Z"/><path class="cls-2" d="M345.79,358.59c-7.77.13-15.56.29-23.32.45q-.24-11.22-.45-22.42c-.15-7.95-.31-15.87-.45-23.81q-.76-41.55-1.47-83.11c0-1.43.22-2.84.33-4.25.74-.47,1.48-.91,2.22-1.36,6,6.11,12.48,11.86,17.83,18.5,2.31,2.87,3,7.59,3.13,11.5q.67,29.18,1.33,58.32.22,11.88.46,23.78C345.54,343.64,345.67,351.12,345.79,358.59Z"/><path class="cls-2" d="M363.42,468.43a56.53,56.53,0,0,1-5.91-2.73c-21.77-13.78-33.27-33.85-33.94-59.32q-.31-11.75-.56-23.47l23.09-.45c0,1.84,0,3.65.07,5.49.26,25.24,2.26,49.9,14.81,72.54C362.08,462.46,362.34,464.85,363.42,468.43Z"/></svg>