<?xml version="1.0" encoding="utf-8"?>
<!-- Generator: Adobe Illustrator 24.2.1, SVG Export Plug-In . SVG Version: 6.00 Build 0)  -->
<svg version="1.1" xmlns="http://www.w3.org/2000/svg" xmlns:xlink="http://www.w3.org/1999/xlink" x="0px" y="0px"
	 viewBox="0 0 500 500" style="enable-background:new 0 0 500 500;" xml:space="preserve">
<style type="text/css">
	.st0{fill:#F2F2F2;}
</style>
<g id="Layer_2">
	<rect class="st0" width="500" height="500"/>
</g>
<g id="Layer_1">
	<g>
		<path d="M215.8,94.6c-0.9-0.8-1.6-1.4-2.3-2.1c0.5-0.3,0.8-0.7,1.2-0.7c14.3,0,28.6,0.1,43-0.1c3.6,0,6.5,1.2,8.8,3.8
			c2.3,2.7,4.9,5.3,6.6,8.3c3.6,6.3,6.3,13.2,10.2,19.3c4.9,7.6,9,15.7,13.2,23.7c4.3,8.1,10,15.1,14.2,23.2c1.6,3,4.6,5,7.7,6.3
			c1.9,0.8,3,1.5,3.6,3.9c-1.2,0.1-2.2,0.3-3.3,0.3c-7.4,0-14.8,0-22.2,0c-5.4,0-10.8,0.7-16.5-2.2c-5.7-4.7-10.1-11.2-13.9-18.4
			c-5.7-11.1-12.1-21.8-18.2-32.6c-3.3-5.8-6.1-11.9-10-17.4c-4.2-5.8-8.4-11.4-15.5-14.2c-1.2-0.5-2.3-1.2-3.7-1.2
			C217.7,94.6,216.5,94.6,215.8,94.6z"/>
		<path d="M179.1,180.6c-0.1-0.9-0.2-1.4-0.3-2.2c6-1.7,10.1-6.4,13.7-11.1c3.1-4,5.7-8.9,6.7-13.7c0.9-4.4,4.6-7.4,4.8-12
			c0.1-1.4,2.1-2.8,2.9-3.8c11.7,0,22.9,0,35,0c-2.7,5.2-5.4,9.8-7.4,14.6c-2.3,5.3-5,10.4-7.6,15.5c-2.9,5.8-7.8,9.5-13.5,12.1
			c-0.6,0.3-1.3,0.4-1.9,0.4C200.6,180.6,189.8,180.6,179.1,180.6z"/>
		<path d="M143.9,356.7c2.3,0,3.8,0,5.1,0c2.9-2.7,3.5-5.8,3.5-9.3c-0.1-10.9,0-21.7,0-32.6c-1-1.7-2-3.4-2.9-4.9
			c-1.5-0.3-2.8-0.5-4-0.7c0-0.7,0-1.2,0-1.7c0.3-0.2,0.7-0.7,1-0.7c9.5,0,18.9-0.3,28.4,0c6.7,0.2,13.3,1.5,16.2,9.6
			c-0.6,2,1.5,5.2-1.3,7.7c0.4,4-2.4,5.3-5.3,6.7c-1.7,0.8-3.2,2-4.8,3.1c4.6,6.8,8.5,13.4,13.2,19.3c2.2,2.7,5.6,4.8,9.4,6.2
			c-4.5,0-9.2,0.7-13.6-0.2c-4.3-0.8-8.2-3.3-10.9-7c-1.6-2.3-3.5-4.6-4.3-7.2c-1.2-3.9-3.8-6.5-6.4-9c-1.1,0-2.2,0-3.5,0
			c0,5.7,0,11.2,0,17.4c0.9,0.8,2.3,2,3.9,3.3c0.6,0,1.5,0,2.5,0c0.2,0.6,0.3,1.3,0.6,2.4c-8.8,0.7-17.5,0.1-26.3,0.4
			C144.3,358.8,144.2,358.1,143.9,356.7z M163.7,333c4.9,0.7,8.9,0.3,12.3-3.1c3.7-3.7,2.7-8.2,2.9-12.5c-2-2.2-2.4-5.9-6.2-6.4
			c-3.1-0.4-6.2-3.3-9,0.7C163.7,318.6,163.7,325.7,163.7,333z"/>
		<path d="M103.3,307c1.3,0,2.8,0,5,0c0.4,1.4,0.5,3,1.2,4.3c3.8,7.2,6.3,15,9.3,22.5c1.7,4.1,3.4,8.3,4.8,12.6
			c1.2,3.8,4.3,7,6.4,10.2c1.8,0.2,2.9,0.3,4.2,0.5c0.1,0.6,0.2,1.3,0.4,2.2c-8.3,0-16.5,0-24.9,0c-0.1-0.6-0.2-1.2-0.2-1.6
			c2-0.9,3.9-1.8,6.1-2.8c-2.2-4.9-4.1-9.2-5.9-13.2c-5.5,0-10.3,0-15.6,0c-1.4,4-2.8,8.1-4.1,11.6c0.6,3.7,3.5,3.4,5.7,3.8
			c0,0.9-0.1,1.4-0.1,2.2c-6.8,0-13.6,0-21.1,0c0.7-1.1,1.2-2.3,1.7-2.4c4.3-0.2,7-2.8,8.3-6.3c3.9-10.4,9.2-20.2,12.9-30.7
			C98.8,315.4,101.2,311.3,103.3,307z M101.6,321c-2.3,6-4.2,10.9-6.3,16.5c4.6-0.4,8.8,0.4,13.1-0.6
			C106.1,331.7,104.1,327,101.6,321z"/>
		<path d="M401,359.3c-0.1-0.7-0.2-1.1-0.3-1.7c1.9-0.8,3.8-1.6,5.6-2.4c-0.6-4.3-2.2-7.9-6-13.5c-4.6,0-9.4,0-14.9,0
			c-1.4,3.9-2.9,8.1-4.3,11.7c0.8,3.6,3.5,3.1,5.6,3.7c0,0.7,0,1.3,0,2.1c-6.5,0-12.8,0-19.1,0c-0.1-0.7-0.1-1.1-0.2-1.8
			c1.8-0.9,3.7-1.9,6.5-3.3c6.7-15.1,13.7-31,20.8-47.2c0.9,0,2.4,0,4.7,0c1.7,3.9,3.7,8.1,5.5,12.5c2.3,5.5,4.5,11.1,6.5,16.7
			c1.5,4.2,3.4,8.3,4.8,12.6c1,3,3.7,5.5,5.6,8.1c1.5,0,2.6,0,3.8,0c0,0.9,0,1.5,0,2.3C417.4,359.3,409.2,359.3,401,359.3z
			 M386.5,337.1c4.7,0,8.6,0,13.2,0c-2.2-5.2-3.4-10.5-6.6-15.4C390.8,327,388.9,331.7,386.5,337.1z"/>
		<path d="M262.4,358.2c-1.1-4.8-2-9-3.1-13.6c1-0.1,2.1-0.2,3.4-0.3c2.7,5,5.6,10,11.1,12.5c2.8,0,5.5,0,8.5,0
			c1.4-1.5,3-3.2,4.7-5.1c0-2.4,0-5.1,0-7.8c-2.7-4.2-7.4-5.6-11.5-7.2c-5.8-2.3-10.4-5.5-13.4-11.1c0-2.1,0.1-4.4,0-6.7
			c-0.2-3.4,1.5-6,3.9-8.1c6.4-5.5,14.1-5.9,22-4.9c1.9,0.2,3.7,1.1,6,1.8c-1.5,3.8,2.6,7.5,0.8,12.1c-5.1-1.9-4.8-8.6-11.6-10
			c-2.1,0-5.9-0.7-10,1.8c-0.6,2.4-1.3,5.3-1.9,7.9c3.7,4.5,7.9,6.8,13,8.4c5.9,1.9,11,5.6,13.8,12.2c0,2.2,0,4.9,0,7.2
			c-0.8,1.5-1.5,2.7-1.9,3.9c-2.1,5.3-6.8,6.9-11.6,8.5c-6.9,2.3-13.4,1.3-19.8-1.4C264.2,358,263.4,358.2,262.4,358.2z"/>
		<path d="M330,309.7c-5.1-0.3-9.3,1.6-12.9,2.8c-3,2.6-1,7.7-6.5,8.5c0.3-4.9-1.1-9.6,1.9-13.9c15.8,0,31.7,0,47.4,0
			c0.6,0.6,1.1,1.1,1.7,1.7c0,3.4,0,7,0,11.7c-1.8-1.5-3.8-2.5-3.7-3.4c0.2-2.9-1.9-4-3.4-5.7c-3.8-0.6-7.6-1.3-11.8-2
			c0,15.1,0,29.6,0,44.3c0.9,0.9,2.1,2,3.5,3.4c1.3,0,2.8,0,4.5,0c0,0.9,0,1.5,0,2.4c-9.6,0-19.2,0-28.9,0c0-0.9,0-1.5,0-2.3
			c1.7,0,3.2,0,4.5,0c1.4-1.4,2.6-2.5,3.7-3.7C330,339,330,324.7,330,309.7z"/>
		<path d="M179,212.3c-0.1-0.9-0.1-1.5-0.2-2.2c0-0.9,0-1.8,0-2.9c47.5,0,94.8,0,142.6,0c0.1,1.4,0.2,3.1,0.3,5.1
			C274.2,212.3,226.9,212.3,179,212.3z"/>
		<path d="M239.9,307.5c0,0.5,0,0.9,0,1.4c-2.2,0.6-4.5,1.1-6.8,1.7c0,14.5,0,28.3,0,42.9c1,0.6,2.5,1.6,5.1,3.2c-0.7,0,0.2,0,1.2,0
			c0.2,0.6,0.3,1.3,0.7,2.5c-8.9,0.5-17.5,0.1-26.3,0.2c-0.2-0.8-0.3-1.5-0.5-2.5c1.2-0.1,2.3-0.2,3.9-0.4c0.7-1,1.6-2.3,3.1-4.7
			c0-12.5,0-26.5,0-39.7c-1.5-4-4.7-1.9-6.7-3.1c0-0.7-0.1-1.1-0.1-1.6C218.5,306.6,233.8,306.5,239.9,307.5z"/>
		<path d="M180.1,400.4c1.4,2.1,2.7,4,4.7,6.9c-1.8-0.8-2.8-0.9-3.5-1.5c-1.6-1.4-3-2.9-4.4-4.3c-1.6,0-3.1,0-4.9,0
			c-0.1,1.7-0.2,3.3-0.3,5c-0.6,0.2-1.2,0.3-1.7,0.5c-0.3-0.2-0.6-0.3-0.6-0.5c0-5.7,0-11.4,0-17.4c3.7,0,7.5,0,11.8,0
			c0.7,0.8,1.8,2,3.4,3.8c-0.5,1.9-1.1,4.4-1.7,6.6C181.7,399.8,180.9,400.1,180.1,400.4z M172.1,390.2c0,3.1,0,5.5,0,8.1
			c2.7,0,5.1,0,7.5,0c0.7-0.7,1.3-1.3,2-1.9c0-0.9,0-1.8,0-1.8c-1.5-1.9-2.5-3.3-3.3-4.3C175.9,390.2,174.1,390.2,172.1,390.2z"/>
		<path d="M233.4,408.3c-2.8-3.8-1.1-6.9-2.2-9.7c-3.3,0-6.7,0-10.6,0c0,2.5,0,5.2,0,7.9c-1.1,0.1-1.7,0.1-2.6,0.2
			c0-6,0-11.9,0-17.9c0.8,0,1.4,0,2.3,0c0,2.1,0,4.1,0,6.5c3.8,0,7.4,0,11.2,0c0-2,0-4,0-6.2c0.8-0.2,1.4-0.4,2-0.6
			c0.3,0.4,0.8,0.7,0.8,1.1c0,5.1,0.1,10.2,0,15.3C234.3,405.6,234,406.2,233.4,408.3z"/>
		<path d="M278.8,406.5c0-6,0-11.7,0-17.5c4.6,0,9.1,0,13.6,0c0,0.3,0,0.5,0,0.8c-3.5,0-7,0-10.7,0c0,2,0,3.6,0,5.6
			c2.8,0,5.9,0,9.1,0c0.2,1.1,0.3,1.7,0.5,2.9c-3.3,0-6.4,0-9.7,0c0,2,0,3.6,0,5.6c3.5,0,7.1,0,10.8,0c0,1.1,0,1.7,0,2.6
			C288.1,406.5,283.7,406.5,278.8,406.5z"/>
		<path d="M146.3,402.8c-1.1,1.6-2,2.8-2.8,4c-0.3-0.1-0.6-0.2-0.9-0.3c0.3-1.4,0.6-2.7,0.9-4.1c1.1-3.9,4.4-6.9,4.7-11.1
			c0.2-1.7,1.4-2.1,4.7-2.5c2.6,5.8,5.2,11.6,7.8,17.5c-0.9,0.2-1.5,0.4-2.1,0.6c-0.8-1.4-1.6-2.6-2.5-4
			C153,402.8,149.6,402.8,146.3,402.8z M155,399.6c-1.1-3.1-2.1-5.6-3.5-9.4c-1.4,3.8-2.4,6.5-3.4,9.4
			C150.8,399.6,152.8,399.6,155,399.6z"/>
		<path d="M358.9,403.5c-0.9,0.9-2,2-3.2,3.2c-3.5,0-7.1,0.6-10.3-1.9c0-0.6,0-1.2,0-1.9c3.4,1.8,7,0.7,10.7,1.1c0-1.3,0-2.4,0-3.7
			c-3.4-1.5-7.1-3.1-11.3-4.9c0.8-2.4,1.4-4.4,2-6.2c2-0.6,3.9-1.5,5.8-1.5c1.7,0,3.5,1,5.3,1.5c-0.1,0.7-0.3,1.4-0.5,2.4
			c-3.3-1-6.8-3.7-9.5,1.1c1.9,4.8,7.6,3.2,11,6.9C358.9,400.2,358.9,401.7,358.9,403.5z"/>
		<path d="M195.7,400.7c0.9,0.9,2,2,3.3,3.2c2.9-0.2,6,0.7,9.8-1.7c-1.1,2.1-1.7,3.2-2.3,4.3c-2.6,0-5.1,0-7.8,0
			c-1.9-1.4-4-3-5.9-4.3c0-3.2,0-6,0-8.4c1.7-1.9,3.3-3.6,4.6-4.9c1.9-0.4,3.5-1,5-0.9c1.9,0.1,3.8,0.8,5.6,1.4
			c0.5,0.2,0.9,0.9,1.3,1.4c-0.7,0.7-1.3,1.3-2.1,2.1c-0.8-0.8-1.5-1.7-2.2-2.5c-3.7-1.2-6.5,0.5-9.3,2.8
			C195.7,395.5,195.7,398,195.7,400.7z"/>
		<path d="M309.9,387.6c2.5,0.8,5.1,1.6,8.4,2.7c-1.5,1.1-2.2,1.6-3.2,2.4c-0.5-0.8-1.2-1.9-1.6-2.4c-4.4-0.7-7.3,0.5-9.8,3.2
			c0,2.2,0,4.5,0,7.2c1,0.8,2.2,1.8,4,3.3c2.2-0.2,5.3,0.8,9.1-1.7c-1.1,2.1-1.7,3.4-2.2,4.3c-5.7,0.8-10.3-0.2-13.7-4.8
			c0-2.6,0-5.3,0-7.9C303,390.2,306.4,388.8,309.9,387.6z"/>
		<path d="M255.4,388.9c4.9,0,9.9,0,14.8,0c0,0.2,0.1,0.5,0.1,0.7c-1.6,0.2-3.2,0.4-5.2,0.6c0,5.2,0,10.6,0,16.1
			c-1,0.2-1.7,0.3-2.8,0.5c0-5.5,0-10.9,0-16.8c-2.6,0-4.8,0-6.9,0C255.3,389.7,255.4,389.3,255.4,388.9z"/>
		<path d="M330.3,390.3c-2.8-0.2-5-0.3-7.2-0.5c5.1-1.1,10.2-1.2,15.3,0c-1.7,0.2-3.4,0.3-5.6,0.5c0,5.4,0,10.8,0,16.3
			c-1.1,0-1.7,0-2.5,0C330.3,401.3,330.3,396,330.3,390.3z"/>
		<path d="M246.6,388.9c0,5.8,0,11.7,0,17.5c-1.7-2.8-1-5.8-1.1-8.8c-0.1-2.9,0-5.9,0-8.8C245.8,388.9,246.2,388.9,246.6,388.9z"/>
	</g>
</g>
</svg>
