<?xml version="1.0" encoding="utf-8"?>
<!-- Generator: Adobe Illustrator 24.2.1, SVG Export Plug-In . SVG Version: 6.00 Build 0)  -->
<svg version="1.1" id="Layer_1" xmlns="http://www.w3.org/2000/svg" xmlns:xlink="http://www.w3.org/1999/xlink" x="0px" y="0px"
	 viewBox="0 0 1440 320" style="enable-background:new 0 0 1440 320;" xml:space="preserve">
<style type="text/css">
	.st0{fill:#FFFFFF;}
</style>
<path class="st0" d="M0,225l48,10.7c48,10.3,144,32.3,240-5.4C384,193,480,97,576,86.3C672,76,768,150,864,187.7
	c96,37.3,192,37.3,288,10.6c96-26.3,192-80.3,240-106.6l48-26.7v256h-48c-48,0-144,0-240,0s-192,0-288,0s-192,0-288,0s-192,0-288,0
	s-192,0-240,0H0V225z"/>
</svg>
