<svg xmlns="http://www.w3.org/2000/svg" viewBox="0 0 567 567"><defs><style>.cls-1{fill:#232323;}.cls-2{fill:#0f89af;}.cls-3{fill:#fffdfd;}</style></defs><g id="Layer_2" data-name="Layer 2"><g id="Layer_1-2" data-name="Layer 1"><path class="cls-1" d="M241.59,196.14a7.86,7.86,0,0,0-4.53-1.36q-5,0-7.35,5.24a7.94,7.94,0,0,0-.4,2.36v.38c0,3,1.44,5.25,4.29,6.88a7,7,0,0,0,3.31.81h.49q4.56,0,7-4.76a8.27,8.27,0,0,0,.57-2.93v-.38A7.57,7.57,0,0,0,241.59,196.14Zm23.83-1.36a10.89,10.89,0,0,0-2.55-.41h-.32q-4.91,0-7.41,5.18a7.93,7.93,0,0,0-.49,2.62v.42c0,3.36,1.74,5.86,5.26,7.48a9,9,0,0,0,2.55.42H263q4.91,0,7.41-5.26a11.41,11.41,0,0,0,.41-2.47v-.49Q270.77,197.24,265.42,194.78Zm0,0a10.89,10.89,0,0,0-2.55-.41h-.32q-4.91,0-7.41,5.18a7.93,7.93,0,0,0-.49,2.62v.42c0,3.36,1.74,5.86,5.26,7.48a9,9,0,0,0,2.55.42H263q4.91,0,7.41-5.26a11.41,11.41,0,0,0,.41-2.47v-.49Q270.77,197.24,265.42,194.78Zm-23.83,1.36a7.86,7.86,0,0,0-4.53-1.36q-5,0-7.35,5.24a7.94,7.94,0,0,0-.4,2.36v.38c0,3,1.44,5.25,4.29,6.88a7,7,0,0,0,3.31.81h.49q4.56,0,7-4.76a8.27,8.27,0,0,0,.57-2.93v-.38A7.57,7.57,0,0,0,241.59,196.14Zm0,0a7.86,7.86,0,0,0-4.53-1.36q-5,0-7.35,5.24a7.94,7.94,0,0,0-.4,2.36v.38c0,3,1.44,5.25,4.29,6.88a7,7,0,0,0,3.31.81h.49q4.56,0,7-4.76a8.27,8.27,0,0,0,.57-2.93v-.38A7.57,7.57,0,0,0,241.59,196.14Zm23.83-1.36a10.89,10.89,0,0,0-2.55-.41h-.32q-4.91,0-7.41,5.18a7.93,7.93,0,0,0-.49,2.62v.42c0,3.36,1.74,5.86,5.26,7.48a9,9,0,0,0,2.55.42H263q4.91,0,7.41-5.26a11.41,11.41,0,0,0,.41-2.47v-.49Q270.77,197.24,265.42,194.78Zm29.14,2.46a7.8,7.8,0,0,0-5.27-2.53h-.9q-3.92,0-6.43,3.83a8.15,8.15,0,0,0-1.08,3h15.65C296.53,200.45,295.89,199,294.56,197.24Zm0,0a7.8,7.8,0,0,0-5.27-2.53h-.9q-3.92,0-6.43,3.83a8.15,8.15,0,0,0-1.08,3h15.65C296.53,200.45,295.89,199,294.56,197.24Zm-29.14-2.46a10.89,10.89,0,0,0-2.55-.41h-.32q-4.91,0-7.41,5.18a7.93,7.93,0,0,0-.49,2.62v.42c0,3.36,1.74,5.86,5.26,7.48a9,9,0,0,0,2.55.42H263q4.91,0,7.41-5.26a11.41,11.41,0,0,0,.41-2.47v-.49Q270.77,197.24,265.42,194.78Zm-23.83,1.36a7.86,7.86,0,0,0-4.53-1.36q-5,0-7.35,5.24a7.94,7.94,0,0,0-.4,2.36v.38c0,3,1.44,5.25,4.29,6.88a7,7,0,0,0,3.31.81h.49q4.56,0,7-4.76a8.27,8.27,0,0,0,.57-2.93v-.38A7.57,7.57,0,0,0,241.59,196.14Zm0,0a7.86,7.86,0,0,0-4.53-1.36q-5,0-7.35,5.24a7.94,7.94,0,0,0-.4,2.36v.38c0,3,1.44,5.25,4.29,6.88a7,7,0,0,0,3.31.81h.49q4.56,0,7-4.76a8.27,8.27,0,0,0,.57-2.93v-.38A7.57,7.57,0,0,0,241.59,196.14Zm23.83-1.36a10.89,10.89,0,0,0-2.55-.41h-.32q-4.91,0-7.41,5.18a7.93,7.93,0,0,0-.49,2.62v.42c0,3.36,1.74,5.86,5.26,7.48a9,9,0,0,0,2.55.42H263q4.91,0,7.41-5.26a11.41,11.41,0,0,0,.41-2.47v-.49Q270.77,197.24,265.42,194.78Zm29.14,2.46a7.8,7.8,0,0,0-5.27-2.53h-.9q-3.92,0-6.43,3.83a8.15,8.15,0,0,0-1.08,3h15.65C296.53,200.45,295.89,199,294.56,197.24Zm49.8-1.15a7.85,7.85,0,0,0-4.53-1.38q-5,0-7.3,5.25a7.49,7.49,0,0,0-.41,2.33v.41a7.54,7.54,0,0,0,4.25,6.84,7.15,7.15,0,0,0,3.3.8h.5c3.06,0,5.38-1.59,7-4.75a8.52,8.52,0,0,0,.55-2.89v-.41A7.5,7.5,0,0,0,344.36,196.09Zm32-7.26h-.1l-3.44,9.32h7v-.08Zm0,0h-.1l-3.44,9.32h7v-.08Zm-32,7.26a7.85,7.85,0,0,0-4.53-1.38q-5,0-7.3,5.25a7.49,7.49,0,0,0-.41,2.33v.41a7.54,7.54,0,0,0,4.25,6.84,7.15,7.15,0,0,0,3.3.8h.5c3.06,0,5.38-1.59,7-4.75a8.52,8.52,0,0,0,.55-2.89v-.41A7.5,7.5,0,0,0,344.36,196.09Zm-49.8,1.15a7.8,7.8,0,0,0-5.27-2.53h-.9q-3.92,0-6.43,3.83a8.15,8.15,0,0,0-1.08,3h15.65C296.53,200.45,295.89,199,294.56,197.24Zm-29.14-2.46a10.89,10.89,0,0,0-2.55-.41h-.32q-4.91,0-7.41,5.18a7.93,7.93,0,0,0-.49,2.62v.42c0,3.36,1.74,5.86,5.26,7.48a9,9,0,0,0,2.55.42H263q4.91,0,7.41-5.26a11.41,11.41,0,0,0,.41-2.47v-.49Q270.77,197.24,265.42,194.78Zm-23.83,1.36a7.86,7.86,0,0,0-4.53-1.36q-5,0-7.35,5.24a7.94,7.94,0,0,0-.4,2.36v.38c0,3,1.44,5.25,4.29,6.88a7,7,0,0,0,3.31.81h.49q4.56,0,7-4.76a8.27,8.27,0,0,0,.57-2.93v-.38A7.57,7.57,0,0,0,241.59,196.14Zm0,0a7.86,7.86,0,0,0-4.53-1.36q-5,0-7.35,5.24a7.94,7.94,0,0,0-.4,2.36v.38c0,3,1.44,5.25,4.29,6.88a7,7,0,0,0,3.31.81h.49q4.56,0,7-4.76a8.27,8.27,0,0,0,.57-2.93v-.38A7.57,7.57,0,0,0,241.59,196.14Zm23.83-1.36a10.89,10.89,0,0,0-2.55-.41h-.32q-4.91,0-7.41,5.18a7.93,7.93,0,0,0-.49,2.62v.42c0,3.36,1.74,5.86,5.26,7.48a9,9,0,0,0,2.55.42H263q4.91,0,7.41-5.26a11.41,11.41,0,0,0,.41-2.47v-.49Q270.77,197.24,265.42,194.78Zm29.14,2.46a7.8,7.8,0,0,0-5.27-2.53h-.9q-3.92,0-6.43,3.83a8.15,8.15,0,0,0-1.08,3h15.65C296.53,200.45,295.89,199,294.56,197.24Zm49.8-1.15a7.85,7.85,0,0,0-4.53-1.38q-5,0-7.3,5.25a7.49,7.49,0,0,0-.41,2.33v.41a7.54,7.54,0,0,0,4.25,6.84,7.15,7.15,0,0,0,3.3.8h.5c3.06,0,5.38-1.59,7-4.75a8.52,8.52,0,0,0,.55-2.89v-.41A7.5,7.5,0,0,0,344.36,196.09Zm32-7.26h-.1l-3.44,9.32h7v-.08ZM404.68,195a12.16,12.16,0,0,0-2.53-.38h-.3q-4.82,0-7.3,5.09a8.08,8.08,0,0,0-.47,2.58v.4c0,3.29,1.72,5.75,5.18,7.35a8.41,8.41,0,0,0,2.49.42h.5c3.21,0,5.65-1.72,7.27-5.18a10.2,10.2,0,0,0,.4-2.42v-.49Q409.92,197.45,404.68,195Zm29.45,2.23a7.92,7.92,0,0,0-5.29-2.53H428c-2.63,0-4.76,1.28-6.45,3.83a8.31,8.31,0,0,0-1.07,3h15.64C436.07,200.45,435.43,199,434.13,197.24Zm0,0a7.92,7.92,0,0,0-5.29-2.53H428c-2.63,0-4.76,1.28-6.45,3.83a8.31,8.31,0,0,0-1.07,3h15.64C436.07,200.45,435.43,199,434.13,197.24ZM404.68,195a12.16,12.16,0,0,0-2.53-.38h-.3q-4.82,0-7.3,5.09a8.08,8.08,0,0,0-.47,2.58v.4c0,3.29,1.72,5.75,5.18,7.35a8.41,8.41,0,0,0,2.49.42h.5c3.21,0,5.65-1.72,7.27-5.18a10.2,10.2,0,0,0,.4-2.42v-.49Q409.92,197.45,404.68,195Zm-28.32-6.18h-.1l-3.44,9.32h7v-.08Zm-32,7.26a7.85,7.85,0,0,0-4.53-1.38q-5,0-7.3,5.25a7.49,7.49,0,0,0-.41,2.33v.41a7.54,7.54,0,0,0,4.25,6.84,7.15,7.15,0,0,0,3.3.8h.5c3.06,0,5.38-1.59,7-4.75a8.52,8.52,0,0,0,.55-2.89v-.41A7.5,7.5,0,0,0,344.36,196.09Zm-49.8,1.15a7.8,7.8,0,0,0-5.27-2.53h-.9q-3.92,0-6.43,3.83a8.15,8.15,0,0,0-1.08,3h15.65C296.53,200.45,295.89,199,294.56,197.24Zm-29.14-2.46a10.89,10.89,0,0,0-2.55-.41h-.32q-4.91,0-7.41,5.18a7.93,7.93,0,0,0-.49,2.62v.42c0,3.36,1.74,5.86,5.26,7.48a9,9,0,0,0,2.55.42H263q4.91,0,7.41-5.26a11.41,11.41,0,0,0,.41-2.47v-.49Q270.77,197.24,265.42,194.78Zm-23.83,1.36a7.86,7.86,0,0,0-4.53-1.36q-5,0-7.35,5.24a7.94,7.94,0,0,0-.4,2.36v.38c0,3,1.44,5.25,4.29,6.88a7,7,0,0,0,3.31.81h.49q4.56,0,7-4.76a8.27,8.27,0,0,0,.57-2.93v-.38A7.57,7.57,0,0,0,241.59,196.14Zm0,0a7.86,7.86,0,0,0-4.53-1.36q-5,0-7.35,5.24a7.94,7.94,0,0,0-.4,2.36v.38c0,3,1.44,5.25,4.29,6.88a7,7,0,0,0,3.31.81h.49q4.56,0,7-4.76a8.27,8.27,0,0,0,.57-2.93v-.38A7.57,7.57,0,0,0,241.59,196.14Zm23.83-1.36a10.89,10.89,0,0,0-2.55-.41h-.32q-4.91,0-7.41,5.18a7.93,7.93,0,0,0-.49,2.62v.42c0,3.36,1.74,5.86,5.26,7.48a9,9,0,0,0,2.55.42H263q4.91,0,7.41-5.26a11.41,11.41,0,0,0,.41-2.47v-.49Q270.77,197.24,265.42,194.78Zm29.14,2.46a7.8,7.8,0,0,0-5.27-2.53h-.9q-3.92,0-6.43,3.83a8.15,8.15,0,0,0-1.08,3h15.65C296.53,200.45,295.89,199,294.56,197.24Zm49.8-1.15a7.85,7.85,0,0,0-4.53-1.38q-5,0-7.3,5.25a7.49,7.49,0,0,0-.41,2.33v.41a7.54,7.54,0,0,0,4.25,6.84,7.15,7.15,0,0,0,3.3.8h.5c3.06,0,5.38-1.59,7-4.75a8.52,8.52,0,0,0,.55-2.89v-.41A7.5,7.5,0,0,0,344.36,196.09Zm32-7.26h-.1l-3.44,9.32h7v-.08ZM404.68,195a12.16,12.16,0,0,0-2.53-.38h-.3q-4.82,0-7.3,5.09a8.08,8.08,0,0,0-.47,2.58v.4c0,3.29,1.72,5.75,5.18,7.35a8.41,8.41,0,0,0,2.49.42h.5c3.21,0,5.65-1.72,7.27-5.18a10.2,10.2,0,0,0,.4-2.42v-.49Q409.92,197.45,404.68,195Zm29.45,2.23a7.92,7.92,0,0,0-5.29-2.53H428c-2.63,0-4.76,1.28-6.45,3.83a8.31,8.31,0,0,0-1.07,3h15.64C436.07,200.45,435.43,199,434.13,197.24Zm0,0a7.92,7.92,0,0,0-5.29-2.53H428c-2.63,0-4.76,1.28-6.45,3.83a8.31,8.31,0,0,0-1.07,3h15.64C436.07,200.45,435.43,199,434.13,197.24ZM404.68,195a12.16,12.16,0,0,0-2.53-.38h-.3q-4.82,0-7.3,5.09a8.08,8.08,0,0,0-.47,2.58v.4c0,3.29,1.72,5.75,5.18,7.35a8.41,8.41,0,0,0,2.49.42h.5c3.21,0,5.65-1.72,7.27-5.18a10.2,10.2,0,0,0,.4-2.42v-.49Q409.92,197.45,404.68,195Zm-28.32-6.18h-.1l-3.44,9.32h7v-.08Zm-32,7.26a7.85,7.85,0,0,0-4.53-1.38q-5,0-7.3,5.25a7.49,7.49,0,0,0-.41,2.33v.41a7.54,7.54,0,0,0,4.25,6.84,7.15,7.15,0,0,0,3.3.8h.5c3.06,0,5.38-1.59,7-4.75a8.52,8.52,0,0,0,.55-2.89v-.41A7.5,7.5,0,0,0,344.36,196.09Zm-49.8,1.15a7.8,7.8,0,0,0-5.27-2.53h-.9q-3.92,0-6.43,3.83a8.15,8.15,0,0,0-1.08,3h15.65C296.53,200.45,295.89,199,294.56,197.24Zm-29.14-2.46a10.89,10.89,0,0,0-2.55-.41h-.32q-4.91,0-7.41,5.18a7.93,7.93,0,0,0-.49,2.62v.42c0,3.36,1.74,5.86,5.26,7.48a9,9,0,0,0,2.55.42H263q4.91,0,7.41-5.26a11.41,11.41,0,0,0,.41-2.47v-.49Q270.77,197.24,265.42,194.78Zm-23.83,1.36a7.86,7.86,0,0,0-4.53-1.36q-5,0-7.35,5.24a7.94,7.94,0,0,0-.4,2.36v.38c0,3,1.44,5.25,4.29,6.88a7,7,0,0,0,3.31.81h.49q4.56,0,7-4.76a8.27,8.27,0,0,0,.57-2.93v-.38A7.57,7.57,0,0,0,241.59,196.14ZM283.49,0C126.92,0,0,126.92,0,283.49S126.92,567,283.49,567,567,440.06,567,283.49,440.06,0,283.49,0ZM221.88,186.56c0,.93-.58,1.44-1.72,1.55h-.09l-2.87-1.47a16.17,16.17,0,0,0-4.71-.91c-3.89,0-7.28,1.78-10.11,5.35a13.71,13.71,0,0,0-2.14,7q0,6.85,6.43,10.85a12.25,12.25,0,0,0,5.67,1.49h.24a13.9,13.9,0,0,0,7.32-2.3h.49c1,.2,1.49.7,1.49,1.47v.23c0,1.17-1.85,2.28-5.52,3.38a12.5,12.5,0,0,1-3.61.49h-.41q-7.71,0-12.93-7.14a16.62,16.62,0,0,1-2.45-8.47q0-8.13,7.4-13.23a15.13,15.13,0,0,1,17.18.57,2.25,2.25,0,0,1,.34,1Zm20.45,25.85a10.85,10.85,0,0,1-4.93,1.27h-.66q-4.45,0-8.32-4.19a11.77,11.77,0,0,1-2.34-6.88,11.07,11.07,0,0,1,4.76-9.06,11.31,11.31,0,0,1,6.31-2,11.2,11.2,0,0,1,11.08,11.08Q248.23,208.83,242.33,212.41Zm29-2.75a11.23,11.23,0,0,1-8.39,4h-.64c-3.05,0-5.86-1.42-8.47-4.25a12.11,12.11,0,0,1-2.4-7c0-3.65,1.62-6.71,4.86-9.21a11.47,11.47,0,0,1,6.42-2,11.87,11.87,0,0,1,8,3.37v-9.3l-.09-1.3c.3-.93.77-1.4,1.4-1.4h.32c1,.19,1.47.64,1.47,1.32v16.27l.1,2.78A11.38,11.38,0,0,1,271.34,209.66Zm28.52-6.54c-.19,1.07-.7,1.62-1.53,1.62H281.15a8.1,8.1,0,0,0,4.14,5,8.48,8.48,0,0,0,7.82-.51h.49c1,.19,1.46.68,1.46,1.5v.22c0,1.34-1.95,2.27-5.86,2.76h-.57c-4,0-7.2-1.87-9.62-5.61a11.43,11.43,0,0,1-1.45-5.54q0-6.12,5.78-9.75a12,12,0,0,1,5.29-1.4c4.29,0,7.64,2,10,6.12a11.3,11.3,0,0,1,1.21,5.2Zm25.09,0q0,4.9-4.7,8.57a10.66,10.66,0,0,1-6,2h-.57c-3.4,0-6.37-1.66-8.9-5a12.21,12.21,0,0,1-1.7-6.65V184.31c.11-1.21.58-1.81,1.38-1.81h.32c1,.21,1.49.64,1.49,1.32v17.54c0,3.76,1.08,6.29,3.22,7.56a7.13,7.13,0,0,0,4.53,1.57q4.78,0,7.24-4.94a10.25,10.25,0,0,0,.51-3.23V184.05c.17-1,.66-1.55,1.47-1.55h.25c1,.19,1.47.7,1.47,1.49Zm20.13,9.13a11,11,0,0,1-4.91,1.29h-.67c-2.55,0-5-1.12-7.48-3.33v11.13c0,.68-.53,1.14-1.61,1.36-.77,0-1.28-.53-1.53-1.6V203.25c0-5.58,2.65-9.34,7.9-11.28a17.44,17.44,0,0,1,3.14-.48,11.15,11.15,0,0,1,11,11C351,206.67,349,209.9,345.08,212.28Zm43.37-.07c0,.81-.53,1.3-1.55,1.47h-.09c-.95,0-1.63-.93-2-2.78l-3.67-9.54h-9.58L367,213.19a2,2,0,0,1-1.15.49h-.19q-1.53-.28-1.53-1.53v-.09l2.77-7.53q7.29-19,7.92-21.09a2.07,2.07,0,0,1,1.4-.83c1,0,1.74,1,2.21,3q9.9,25.74,10,26.32ZM413,204.82v9.77c0,1.81-1.42,3.82-4.22,6a12.12,12.12,0,0,1-6.78,2.12c-4,0-7.39-1.82-10-5.43a4.18,4.18,0,0,1-.72-1.6v-.25c0-.7.49-1.17,1.45-1.38H393c.72,0,1.34.66,1.85,2a8.89,8.89,0,0,0,7.2,3.65,8.4,8.4,0,0,0,7.77-4.69l.15-1.05v-3.63a11.15,11.15,0,0,1-7.67,3.3h-.67c-3,0-5.74-1.39-8.31-4.19a11.79,11.79,0,0,1-2.34-6.88,11,11,0,0,1,4.76-9.05,11.36,11.36,0,0,1,6.31-2,11.14,11.14,0,0,1,8.58,4.1,11.27,11.27,0,0,1,2.49,6.5Zm26.4-1.7c-.19,1.07-.7,1.62-1.53,1.62H420.69a8.1,8.1,0,0,0,4.14,5,10,10,0,0,0,3.5.72,9.92,9.92,0,0,0,4.32-1.23h.49c1,.19,1.46.68,1.46,1.5v.22c0,1.34-2,2.27-5.86,2.76h-.57q-6,0-9.61-5.61a11.33,11.33,0,0,1-1.46-5.54q0-6.12,5.78-9.75a12,12,0,0,1,5.29-1.4c4.29,0,7.64,2,10,6.12a11.3,11.3,0,0,1,1.21,5.2Zm25.64,9.2c0,.72-.52,1.17-1.55,1.36h-.09q-1.53-.28-1.53-1.53V203q0-6.09-5.27-8a9.79,9.79,0,0,0-2.29-.32h-.25c-2.92,0-5.21,1.53-6.82,4.57a11.76,11.76,0,0,0-.64,4.46v8.53c0,.81-.51,1.28-1.53,1.45H445c-.83,0-1.34-.53-1.54-1.62V193.31c.13-1.25.68-1.89,1.64-1.89,1,.26,1.53.74,1.53,1.4v1.79a11.38,11.38,0,0,1,7.71-3.19,10.84,10.84,0,0,1,8.15,3.84A10.57,10.57,0,0,1,465,202Zm22.72-16.8c-.19,1-.7,1.55-1.55,1.55h-.09a7.32,7.32,0,0,1-2.61-1.55,8,8,0,0,0-3.59-.91h-.48c-3.15,0-5.55,1.67-7.18,5a9.84,9.84,0,0,0-.56,3q0,4.84,5,7.33a8.86,8.86,0,0,0,3.17.57,8.54,8.54,0,0,0,5.52-2.29l.66-.15h.26c.8,0,1.29.53,1.46,1.55v.07c0,1.12-1.74,2.35-5.22,3.67a14.79,14.79,0,0,1-2.62.32h-.65c-3,0-5.8-1.4-8.37-4.23a11.84,11.84,0,0,1-2.38-6.92c0-3.63,1.61-6.67,4.82-9.15a11.43,11.43,0,0,1,6.35-2,11.23,11.23,0,0,1,7.82,3.25,1.64,1.64,0,0,1,.25.82Zm12.91,15.95c-2.35,5.82-3.65,8.9-3.95,9.26a2.79,2.79,0,0,1-1,.47c-1-.22-1.52-.66-1.52-1.3v-.38q0-.28,3.42-8.5v-.08l-7.23-17.61v-.08c.2-1,.71-1.49,1.53-1.49s1.58,1,2.19,3c3.31,7.81,5,11.91,5.1,12.31h.06q6-14.55,6.31-14.95a1.7,1.7,0,0,1,1.06-.46c1,.19,1.51.67,1.51,1.44v.1Q508.11,193.73,500.67,211.47Zm-71.83-16.76H428c-2.63,0-4.76,1.28-6.45,3.83a8.31,8.31,0,0,0-1.07,3h15.64c0-1.12-.64-2.55-1.94-4.33A7.92,7.92,0,0,0,428.84,194.71Zm-24.16.3a12.16,12.16,0,0,0-2.53-.38h-.3q-4.82,0-7.3,5.09a8.08,8.08,0,0,0-.47,2.58v.4c0,3.29,1.72,5.75,5.18,7.35a8.41,8.41,0,0,0,2.49.42h.5c3.21,0,5.65-1.72,7.27-5.18a10.2,10.2,0,0,0,.4-2.42v-.49Q409.92,197.45,404.68,195Zm-28.42-6.18-3.44,9.32h7v-.08l-3.49-9.24Zm-31.9,7.26a7.85,7.85,0,0,0-4.53-1.38q-5,0-7.3,5.25a7.49,7.49,0,0,0-.41,2.33v.41a7.54,7.54,0,0,0,4.25,6.84,7.15,7.15,0,0,0,3.3.8h.5c3.06,0,5.38-1.59,7-4.75a8.52,8.52,0,0,0,.55-2.89v-.41A7.5,7.5,0,0,0,344.36,196.09Zm-55.07-1.38h-.9q-3.92,0-6.43,3.83a8.15,8.15,0,0,0-1.08,3h15.65c0-1.12-.64-2.55-2-4.33A7.8,7.8,0,0,0,289.29,194.71Zm-23.87.07a10.89,10.89,0,0,0-2.55-.41h-.32q-4.91,0-7.41,5.18a7.93,7.93,0,0,0-.49,2.62v.42c0,3.36,1.74,5.86,5.26,7.48a9,9,0,0,0,2.55.42H263q4.91,0,7.41-5.26a11.41,11.41,0,0,0,.41-2.47v-.49Q270.77,197.24,265.42,194.78Zm-23.83,1.36a7.86,7.86,0,0,0-4.53-1.36q-5,0-7.35,5.24a7.94,7.94,0,0,0-.4,2.36v.38c0,3,1.44,5.25,4.29,6.88a7,7,0,0,0,3.31.81h.49q4.56,0,7-4.76a8.27,8.27,0,0,0,.57-2.93v-.38A7.57,7.57,0,0,0,241.59,196.14Zm0,0a7.86,7.86,0,0,0-4.53-1.36q-5,0-7.35,5.24a7.94,7.94,0,0,0-.4,2.36v.38c0,3,1.44,5.25,4.29,6.88a7,7,0,0,0,3.31.81h.49q4.56,0,7-4.76a8.27,8.27,0,0,0,.57-2.93v-.38A7.57,7.57,0,0,0,241.59,196.14Zm23.83-1.36a10.89,10.89,0,0,0-2.55-.41h-.32q-4.91,0-7.41,5.18a7.93,7.93,0,0,0-.49,2.62v.42c0,3.36,1.74,5.86,5.26,7.48a9,9,0,0,0,2.55.42H263q4.91,0,7.41-5.26a11.41,11.41,0,0,0,.41-2.47v-.49Q270.77,197.24,265.42,194.78Zm29.14,2.46a7.8,7.8,0,0,0-5.27-2.53h-.9q-3.92,0-6.43,3.83a8.15,8.15,0,0,0-1.08,3h15.65C296.53,200.45,295.89,199,294.56,197.24Zm49.8-1.15a7.85,7.85,0,0,0-4.53-1.38q-5,0-7.3,5.25a7.49,7.49,0,0,0-.41,2.33v.41a7.54,7.54,0,0,0,4.25,6.84,7.15,7.15,0,0,0,3.3.8h.5c3.06,0,5.38-1.59,7-4.75a8.52,8.52,0,0,0,.55-2.89v-.41A7.5,7.5,0,0,0,344.36,196.09Zm32-7.26h-.1l-3.44,9.32h7v-.08ZM404.68,195a12.16,12.16,0,0,0-2.53-.38h-.3q-4.82,0-7.3,5.09a8.08,8.08,0,0,0-.47,2.58v.4c0,3.29,1.72,5.75,5.18,7.35a8.41,8.41,0,0,0,2.49.42h.5c3.21,0,5.65-1.72,7.27-5.18a10.2,10.2,0,0,0,.4-2.42v-.49Q409.92,197.45,404.68,195Zm29.45,2.23a7.92,7.92,0,0,0-5.29-2.53H428c-2.63,0-4.76,1.28-6.45,3.83a8.31,8.31,0,0,0-1.07,3h15.64C436.07,200.45,435.43,199,434.13,197.24Zm0,0a7.92,7.92,0,0,0-5.29-2.53H428c-2.63,0-4.76,1.28-6.45,3.83a8.31,8.31,0,0,0-1.07,3h15.64C436.07,200.45,435.43,199,434.13,197.24ZM404.68,195a12.16,12.16,0,0,0-2.53-.38h-.3q-4.82,0-7.3,5.09a8.08,8.08,0,0,0-.47,2.58v.4c0,3.29,1.72,5.75,5.18,7.35a8.41,8.41,0,0,0,2.49.42h.5c3.21,0,5.65-1.72,7.27-5.18a10.2,10.2,0,0,0,.4-2.42v-.49Q409.92,197.45,404.68,195Zm-28.32-6.18h-.1l-3.44,9.32h7v-.08Zm-32,7.26a7.85,7.85,0,0,0-4.53-1.38q-5,0-7.3,5.25a7.49,7.49,0,0,0-.41,2.33v.41a7.54,7.54,0,0,0,4.25,6.84,7.15,7.15,0,0,0,3.3.8h.5c3.06,0,5.38-1.59,7-4.75a8.52,8.52,0,0,0,.55-2.89v-.41A7.5,7.5,0,0,0,344.36,196.09Zm-49.8,1.15a7.8,7.8,0,0,0-5.27-2.53h-.9q-3.92,0-6.43,3.83a8.15,8.15,0,0,0-1.08,3h15.65C296.53,200.45,295.89,199,294.56,197.24Zm-29.14-2.46a10.89,10.89,0,0,0-2.55-.41h-.32q-4.91,0-7.41,5.18a7.93,7.93,0,0,0-.49,2.62v.42c0,3.36,1.74,5.86,5.26,7.48a9,9,0,0,0,2.55.42H263q4.91,0,7.41-5.26a11.41,11.41,0,0,0,.41-2.47v-.49Q270.77,197.24,265.42,194.78Zm-23.83,1.36a7.86,7.86,0,0,0-4.53-1.36q-5,0-7.35,5.24a7.94,7.94,0,0,0-.4,2.36v.38c0,3,1.44,5.25,4.29,6.88a7,7,0,0,0,3.31.81h.49q4.56,0,7-4.76a8.27,8.27,0,0,0,.57-2.93v-.38A7.57,7.57,0,0,0,241.59,196.14Zm0,0a7.86,7.86,0,0,0-4.53-1.36q-5,0-7.35,5.24a7.94,7.94,0,0,0-.4,2.36v.38c0,3,1.44,5.25,4.29,6.88a7,7,0,0,0,3.31.81h.49q4.56,0,7-4.76a8.27,8.27,0,0,0,.57-2.93v-.38A7.57,7.57,0,0,0,241.59,196.14Zm23.83-1.36a10.89,10.89,0,0,0-2.55-.41h-.32q-4.91,0-7.41,5.18a7.93,7.93,0,0,0-.49,2.62v.42c0,3.36,1.74,5.86,5.26,7.48a9,9,0,0,0,2.55.42H263q4.91,0,7.41-5.26a11.41,11.41,0,0,0,.41-2.47v-.49Q270.77,197.24,265.42,194.78Zm29.14,2.46a7.8,7.8,0,0,0-5.27-2.53h-.9q-3.92,0-6.43,3.83a8.15,8.15,0,0,0-1.08,3h15.65C296.53,200.45,295.89,199,294.56,197.24Zm49.8-1.15a7.85,7.85,0,0,0-4.53-1.38q-5,0-7.3,5.25a7.49,7.49,0,0,0-.41,2.33v.41a7.54,7.54,0,0,0,4.25,6.84,7.15,7.15,0,0,0,3.3.8h.5c3.06,0,5.38-1.59,7-4.75a8.52,8.52,0,0,0,.55-2.89v-.41A7.5,7.5,0,0,0,344.36,196.09Zm32-7.26h-.1l-3.44,9.32h7v-.08ZM404.68,195a12.16,12.16,0,0,0-2.53-.38h-.3q-4.82,0-7.3,5.09a8.08,8.08,0,0,0-.47,2.58v.4c0,3.29,1.72,5.75,5.18,7.35a8.41,8.41,0,0,0,2.49.42h.5c3.21,0,5.65-1.72,7.27-5.18a10.2,10.2,0,0,0,.4-2.42v-.49Q409.92,197.45,404.68,195Zm0,0a12.16,12.16,0,0,0-2.53-.38h-.3q-4.82,0-7.3,5.09a8.08,8.08,0,0,0-.47,2.58v.4c0,3.29,1.72,5.75,5.18,7.35a8.41,8.41,0,0,0,2.49.42h.5c3.21,0,5.65-1.72,7.27-5.18a10.2,10.2,0,0,0,.4-2.42v-.49Q409.92,197.45,404.68,195Zm-28.32-6.18h-.1l-3.44,9.32h7v-.08Zm-32,7.26a7.85,7.85,0,0,0-4.53-1.38q-5,0-7.3,5.25a7.49,7.49,0,0,0-.41,2.33v.41a7.54,7.54,0,0,0,4.25,6.84,7.15,7.15,0,0,0,3.3.8h.5c3.06,0,5.38-1.59,7-4.75a8.52,8.52,0,0,0,.55-2.89v-.41A7.5,7.5,0,0,0,344.36,196.09Zm-49.8,1.15a7.8,7.8,0,0,0-5.27-2.53h-.9q-3.92,0-6.43,3.83a8.15,8.15,0,0,0-1.08,3h15.65C296.53,200.45,295.89,199,294.56,197.24Zm-29.14-2.46a10.89,10.89,0,0,0-2.55-.41h-.32q-4.91,0-7.41,5.18a7.93,7.93,0,0,0-.49,2.62v.42c0,3.36,1.74,5.86,5.26,7.48a9,9,0,0,0,2.55.42H263q4.91,0,7.41-5.26a11.41,11.41,0,0,0,.41-2.47v-.49Q270.77,197.24,265.42,194.78Zm-23.83,1.36a7.86,7.86,0,0,0-4.53-1.36q-5,0-7.35,5.24a7.94,7.94,0,0,0-.4,2.36v.38c0,3,1.44,5.25,4.29,6.88a7,7,0,0,0,3.31.81h.49q4.56,0,7-4.76a8.27,8.27,0,0,0,.57-2.93v-.38A7.57,7.57,0,0,0,241.59,196.14Zm0,0a7.86,7.86,0,0,0-4.53-1.36q-5,0-7.35,5.24a7.94,7.94,0,0,0-.4,2.36v.38c0,3,1.44,5.25,4.29,6.88a7,7,0,0,0,3.31.81h.49q4.56,0,7-4.76a8.27,8.27,0,0,0,.57-2.93v-.38A7.57,7.57,0,0,0,241.59,196.14Zm23.83-1.36a10.89,10.89,0,0,0-2.55-.41h-.32q-4.91,0-7.41,5.18a7.93,7.93,0,0,0-.49,2.62v.42c0,3.36,1.74,5.86,5.26,7.48a9,9,0,0,0,2.55.42H263q4.91,0,7.41-5.26a11.41,11.41,0,0,0,.41-2.47v-.49Q270.77,197.24,265.42,194.78Zm29.14,2.46a7.8,7.8,0,0,0-5.27-2.53h-.9q-3.92,0-6.43,3.83a8.15,8.15,0,0,0-1.08,3h15.65C296.53,200.45,295.89,199,294.56,197.24Zm49.8-1.15a7.85,7.85,0,0,0-4.53-1.38q-5,0-7.3,5.25a7.49,7.49,0,0,0-.41,2.33v.41a7.54,7.54,0,0,0,4.25,6.84,7.15,7.15,0,0,0,3.3.8h.5c3.06,0,5.38-1.59,7-4.75a8.52,8.52,0,0,0,.55-2.89v-.41A7.5,7.5,0,0,0,344.36,196.09Zm0,0a7.85,7.85,0,0,0-4.53-1.38q-5,0-7.3,5.25a7.49,7.49,0,0,0-.41,2.33v.41a7.54,7.54,0,0,0,4.25,6.84,7.15,7.15,0,0,0,3.3.8h.5c3.06,0,5.38-1.59,7-4.75a8.52,8.52,0,0,0,.55-2.89v-.41A7.5,7.5,0,0,0,344.36,196.09Zm-49.8,1.15a7.8,7.8,0,0,0-5.27-2.53h-.9q-3.92,0-6.43,3.83a8.15,8.15,0,0,0-1.08,3h15.65C296.53,200.45,295.89,199,294.56,197.24Zm-29.14-2.46a10.89,10.89,0,0,0-2.55-.41h-.32q-4.91,0-7.41,5.18a7.93,7.93,0,0,0-.49,2.62v.42c0,3.36,1.74,5.86,5.26,7.48a9,9,0,0,0,2.55.42H263q4.91,0,7.41-5.26a11.41,11.41,0,0,0,.41-2.47v-.49Q270.77,197.24,265.42,194.78Zm-23.83,1.36a7.86,7.86,0,0,0-4.53-1.36q-5,0-7.35,5.24a7.94,7.94,0,0,0-.4,2.36v.38c0,3,1.44,5.25,4.29,6.88a7,7,0,0,0,3.31.81h.49q4.56,0,7-4.76a8.27,8.27,0,0,0,.57-2.93v-.38A7.57,7.57,0,0,0,241.59,196.14Zm0,0a7.86,7.86,0,0,0-4.53-1.36q-5,0-7.35,5.24a7.94,7.94,0,0,0-.4,2.36v.38c0,3,1.44,5.25,4.29,6.88a7,7,0,0,0,3.31.81h.49q4.56,0,7-4.76a8.27,8.27,0,0,0,.57-2.93v-.38A7.57,7.57,0,0,0,241.59,196.14Zm23.83-1.36a10.89,10.89,0,0,0-2.55-.41h-.32q-4.91,0-7.41,5.18a7.93,7.93,0,0,0-.49,2.62v.42c0,3.36,1.74,5.86,5.26,7.48a9,9,0,0,0,2.55.42H263q4.91,0,7.41-5.26a11.41,11.41,0,0,0,.41-2.47v-.49Q270.77,197.24,265.42,194.78Zm29.14,2.46a7.8,7.8,0,0,0-5.27-2.53h-.9q-3.92,0-6.43,3.83a8.15,8.15,0,0,0-1.08,3h15.65C296.53,200.45,295.89,199,294.56,197.24Zm0,0a7.8,7.8,0,0,0-5.27-2.53h-.9q-3.92,0-6.43,3.83a8.15,8.15,0,0,0-1.08,3h15.65C296.53,200.45,295.89,199,294.56,197.24Zm-29.14-2.46a10.89,10.89,0,0,0-2.55-.41h-.32q-4.91,0-7.41,5.18a7.93,7.93,0,0,0-.49,2.62v.42c0,3.36,1.74,5.86,5.26,7.48a9,9,0,0,0,2.55.42H263q4.91,0,7.41-5.26a11.41,11.41,0,0,0,.41-2.47v-.49Q270.77,197.24,265.42,194.78Zm-23.83,1.36a7.86,7.86,0,0,0-4.53-1.36q-5,0-7.35,5.24a7.94,7.94,0,0,0-.4,2.36v.38c0,3,1.44,5.25,4.29,6.88a7,7,0,0,0,3.31.81h.49q4.56,0,7-4.76a8.27,8.27,0,0,0,.57-2.93v-.38A7.57,7.57,0,0,0,241.59,196.14Zm0,0a7.86,7.86,0,0,0-4.53-1.36q-5,0-7.35,5.24a7.94,7.94,0,0,0-.4,2.36v.38c0,3,1.44,5.25,4.29,6.88a7,7,0,0,0,3.31.81h.49q4.56,0,7-4.76a8.27,8.27,0,0,0,.57-2.93v-.38A7.57,7.57,0,0,0,241.59,196.14Zm0,0a7.86,7.86,0,0,0-4.53-1.36q-5,0-7.35,5.24a7.94,7.94,0,0,0-.4,2.36v.38c0,3,1.44,5.25,4.29,6.88a7,7,0,0,0,3.31.81h.49q4.56,0,7-4.76a8.27,8.27,0,0,0,.57-2.93v-.38A7.57,7.57,0,0,0,241.59,196.14Z"/><path class="cls-2" d="M285.86,148.21c-6.28,6-12.31,12.36-19,17.87-2.45,2-6.53,2.79-9.89,2.9-36.48,1.11-73,2-109.45,3-31.24.86-55.93,18.89-65.59,47.79-9.34,28,.34,59,24.6,77.56,12.9,9.91,27.7,14.08,44,13.67,9.39-.23,18.75-.41,28.14-.57l23.67-.41c.15,8,.31,16.08.47,24.1q-11.84.24-23.69.43-13.58.24-27.16.41c-64.23.82-111-58.26-93.65-118.36,7.75-26.89,24.84-46,49.4-59.51,12.49-6.87,25.41-8.94,39.06-9.21q66.51-1.36,133-2.56c1.43,0,2.86.2,4.29.32Z"/><path class="cls-2" d="M227.05,380.52q-11.78.24-23.54.46c-7.79.16-15.59.29-23.39.45-7.48.14-15,.3-22.47.43-16.57.32-32.78-1.61-46.36-11.95-7.12-5.41-12.88-12.6-19.27-19,.66-1.16,1.29-2.34,1.92-3.49,2.77.38,5.76.2,8.28,1.22,15.19,6.15,30.81,9.52,47.34,9.16,10-.23,20-.43,30-.59q11.81-.24,23.63-.45l23.37-.41Z"/><path class="cls-2" d="M337.52,374.88c-.65.93-1.31,1.84-2,2.74-3.54.34-7.07.93-10.61,1q-37,.75-73.95,1.45-12,.24-23.94.45l-.48-24.14,23.78-.45q25.1-.48,50.22-1.14c9.45-.25,16.73,1.57,23.08,8.91C327.46,368.12,332.85,371.21,337.52,374.88Z"/><path class="cls-2" d="M331.55,100.06c-6.2,6.1-12,12.66-18.76,18.07-2.9,2.33-7.7,3.09-11.66,3.18-45.21,1-90.41,2.11-135.62,2.58-25.57.26-50.56,2.28-73.5,15-2,1.1-4.42,1.37-8,2.45a57,57,0,0,1,2.76-6c14-22.07,34.31-33.7,60.11-34.38,59.66-1.57,119.34-2.41,179-3.53,1.43,0,2.86.22,4.3.34C330.62,98.56,331.08,99.31,331.55,100.06Z"/><path class="cls-2" d="M290.14,328.72l-2,3.06c-2.54.25-5.08.68-7.64.73l-30.7.63-23.62.5q-11.67.24-23.33.45c-.16-8-.32-16.07-.47-24.1q11.66-.19,23.35-.47t23.39-.64c1.25,0,2.47-.06,3.72-.11,9.48-.32,16.73,1.63,23.13,8.91C279.8,322.12,285.33,325.09,290.14,328.72Z"/><path class="cls-3" d="M249.08,308.88q-11.7.42-23.39.64-.34-18.64-.71-37.27c0-1.43.21-2.86.32-4.29l2.61-1.77c6,6.28,12.35,12.31,17.86,19,2,2.45,2.79,6.53,2.9,9.89Z"/><path class="cls-3" d="M414.63,400.09c.81,64.23-58.29,111-118.37,93.65-26.89-7.75-46-24.84-59.51-49.4-6.87-12.49-8.93-25.41-9.2-39.06q-.24-12.37-.5-24.76l-.48-24.14c-.14-7.57-.29-15.17-.43-22.74l23.62-.5q.31,11.4.59,22.79.35,12.06.64,24.14.33,12.24.65,24.46c.87,31.24,18.89,55.93,47.8,65.57,28,9.36,59-.32,77.55-24.58,9.91-12.92,14.08-27.7,13.67-44-.81-34.1-1-68.2-2.2-102.27-.31-9.48,1.64-16.73,8.91-23.13,4.45-3.87,7.42-9.4,11.05-14.21l3.06,2c.25,2.54.68,5.08.72,7.62C413.06,314.42,414.08,357.26,414.63,400.09Z"/><path class="cls-3" d="M427.14,458.1c.38-2.77.21-5.75,1.23-8.26,6.14-15.21,9.53-30.82,9.16-47.35-1.11-50.34-1.68-100.69-3-151-.26-9.45,1.55-16.73,8.89-23.06,4.42-3.82,7.5-9.2,11.19-13.88l2.74,2c.35,3.54.93,7.07,1,10.62q1.68,83.64,3.23,167.3c.32,16.56-1.61,32.78-11.95,46.35-5.42,7.11-12.59,12.89-19,19.26Z"/><path class="cls-3" d="M203.2,356.79q-11.8.19-23.63.45-.24-11.36-.45-22.72-.24-12.06-.45-24.12-.78-42.09-1.5-84.2c0-1.45.23-2.88.34-4.3.75-.48,1.5-.93,2.24-1.39,6.1,6.19,12.66,12,18.07,18.75,2.34,2.9,3.09,7.69,3.18,11.65q.67,29.57,1.34,59.08c.15,8,.31,16.08.47,24.1C203,341.64,203.08,349.22,203.2,356.79Z"/><path class="cls-3" d="M221.06,468.08a54.72,54.72,0,0,1-6-2.77c-22.06-14-33.72-34.3-34.4-60.1-.2-7.93-.4-15.84-.56-23.78,7.8-.16,15.6-.29,23.39-.45,0,1.86.05,3.69.07,5.55.27,25.58,2.29,50.56,15,73.5C219.7,462,220,464.45,221.06,468.08Z"/></g></g></svg>